<?xml version="1.0" encoding="UTF-8" standalone="no"?>
<svg
   version="1.1"
   viewBox="0.00 0.00 1024.00 1024.00"
   id="svg31"
   sodipodi:docname="_469e068c-20a3-43a6-8cb4-d508598c745a.svg"
   inkscape:version="1.3 (0e150ed, 2023-07-21)"
   xmlns:inkscape="http://www.inkscape.org/namespaces/inkscape"
   xmlns:sodipodi="http://sodipodi.sourceforge.net/DTD/sodipodi-0.dtd"
   xmlns="http://www.w3.org/2000/svg"
   xmlns:svg="http://www.w3.org/2000/svg">
  <defs
     id="defs31" />
  <sodipodi:namedview
     id="namedview31"
     pagecolor="#ffffff"
     bordercolor="#000000"
     borderopacity="0.25"
     inkscape:showpageshadow="2"
     inkscape:pageopacity="0.0"
     inkscape:pagecheckerboard="0"
     inkscape:deskcolor="#d1d1d1"
     inkscape:zoom="0.77246094"
     inkscape:cx="543.06953"
     inkscape:cy="517.17826"
     inkscape:window-width="1392"
     inkscape:window-height="934"
     inkscape:window-x="0"
     inkscape:window-y="25"
     inkscape:window-maximized="0"
     inkscape:current-layer="svg31" />
  <path
     fill="#00182c"
     d="   M 850.08 681.55   Q 850.00 700.40 850.00 719.25   Q 850.00 736.96 849.88 739.24   Q 848.25 770.95 830.68 797.94   C 810.83 827.12 781.08 843.81 745.76 844.12   Q 739.00 844.18 732.24 844.42   C 714.79 845.06 698.93 844.78 682.25 844.49   C 676.56 844.40 669.84 844.85 664.25 844.85   Q 623.50 844.87 582.75 844.63   Q 577.44 844.60 562.75 844.70   Q 549.50 844.80 536.26 844.44   Q 521.24 844.04 515.00 844.50   C 502.84 845.39 488.31 844.56 478.67 844.69   C 455.44 844.99 432.22 844.57 409.01 844.91   Q 388.29 845.21 367.59 844.66   C 366.71 844.64 365.73 844.93 364.75 844.92   Q 331.30 844.51 297.85 844.84   C 290.58 844.92 283.59 844.52 276.48 844.12   Q 266.77 843.58 260.58 842.35   Q 220.56 834.44 196.37 800.62   C 183.07 782.02 175.66 760.31 175.51 737.41   C 174.91 646.11 175.11 554.80 175.13 463.50   Q 175.13 445.13 177.06 431.79   Q 179.30 418.91 184.32 406.24   Q 195.24 381.09 215.86 363.40   Q 221.30 358.72 232.14 351.82   Q 350.62 276.37 466.53 197.02   C 473.64 192.15 482.58 187.26 491.00 184.83   Q 522.77 175.66 550.84 191.37   Q 553.63 192.93 567.58 202.29   Q 656.61 261.97 746.19 320.81   Q 768.09 335.19 790.23 349.22   Q 801.26 356.21 806.63 360.62   Q 845.31 392.43 849.64 444.38   Q 850.19 450.91 850.16 466.75   Q 849.93 574.14 850.08 681.55   Z   M 454.97 315.19   L 677.97 315.19   Q 678.60 315.19 678.08 314.84   Q 608.84 268.60 539.56 222.44   C 530.79 216.60 523.15 212.57 512.64 213.01   Q 501.84 213.07 492.28 219.07   C 480.70 226.33 467.81 235.43 458.33 241.87   Q 405.62 277.69 349.34 314.97   A 0.13 0.13 0.0 0 0 349.41 315.20   L 454.97 315.19   Z   M 495.74 617.09   Q 509.58 626.23 523.03 621.04   Q 526.30 619.78 540.03 610.62   Q 632.77 548.78 725.16 486.21   Q 725.58 485.92 725.59 485.41   L 725.74 362.09   L 725.76 351.87   A 4.19 4.19 0.0 0 0 721.58 347.67   Q 512.47 347.64 303.99 347.66   Q 302.17 347.66 300.33 347.91   A 0.70 0.70 0.0 0 0 299.74 348.48   Q 299.24 351.28 299.24 353.25   Q 299.29 419.03 299.22 484.26   A 3.67 3.67 0.0 0 0 300.85 487.31   L 495.74 617.09   Z   M 813.32 427.30   C 809.54 410.03 800.14 395.12 785.70 384.85   Q 769.25 373.14 757.85 366.40   Q 757.21 366.03 757.22 366.76   L 757.33 464.20   A 0.39 0.39 0.0 0 0 757.93 464.52   L 813.03 428.03   Q 813.42 427.77 813.32 427.30   Z   M 237.52 386.79   C 225.24 396.60 215.15 411.51 211.91 427.57   A 0.81 0.81 0.0 0 0 212.26 428.41   L 266.29 464.13   Q 268.08 465.32 268.08 463.17   L 267.91 367.26   A 0.40 0.39 74.3 0 0 267.31 366.92   C 257.27 372.97 244.91 380.88 237.52 386.79   Z   M 210.37 745.63   C 276.97 697.70 342.23 647.79 408.21 599.08   Q 408.67 598.75 408.20 598.44   L 207.20 463.46   Q 206.60 463.06 206.60 463.79   L 206.79 746.75   A 0.53 0.53 0.0 0 0 207.53 747.24   Q 208.94 746.66 210.37 745.63   Z   M 817.83 463.57   L 617.57 598.60   Q 616.92 599.03 617.55 599.50   L 816.64 746.36   Q 818.69 747.87 818.69 745.32   L 818.64 464.00   A 0.52 0.52 0.0 0 0 817.83 463.57   Z   M 546.12 645.96   C 529.83 657.51 507.64 658.91 490.38 651.41   Q 484.58 648.88 473.34 641.02   Q 463.47 634.12 453.59 627.19   C 445.01 621.18 437.84 619.11 428.66 624.91   Q 424.87 627.30 411.06 637.55   C 347.84 684.44 285.03 731.97 221.14 777.95   A 0.99 0.99 0.0 0 0 220.86 779.25   C 234.08 801.92 255.68 812.02 281.50 812.01   Q 514.25 811.97 747.00 811.73   Q 782.16 811.69 802.19 783.47   Q 803.92 781.04 805.01 778.39   Q 805.21 777.90 804.78 777.58   Q 705.59 704.72 606.51 631.71   C 598.76 626.00 591.31 619.88 582.91 621.98   Q 579.60 622.80 573.53 626.93   Q 559.73 636.32 546.12 645.96   Z"
     id="path20" />
  <path
     fill="#ffffff"
     d="   M 512.64 213.01   C 517.97 224.16 518.11 235.22 513.79 246.57   Q 511.44 252.73 509.00 256.25   Q 486.62 288.48 456.09 311.56   Q 454.35 312.88 454.97 315.19   L 349.41 315.20   A 0.13 0.13 0.0 0 1 349.34 314.97   Q 405.62 277.69 458.33 241.87   C 467.81 235.43 480.70 226.33 492.28 219.07   Q 501.84 213.07 512.64 213.01   Z"
     id="path21" />
  <path
     fill="#dadada"
     d="   M 512.64 213.01   C 523.15 212.57 530.79 216.60 539.56 222.44   Q 608.84 268.60 678.08 314.84   Q 678.60 315.19 677.97 315.19   L 454.97 315.19   Q 454.35 312.88 456.09 311.56   Q 486.62 288.48 509.00 256.25   Q 511.44 252.73 513.79 246.57   C 518.11 235.22 517.97 224.16 512.64 213.01   Z"
     id="path22" />
  <path
     fill="#ffffff"
     d="   M 725.74 362.09   Q 723.57 363.46 722.40 365.79   Q 712.38 385.67 698.71 404.09   C 696.19 407.49 693.75 411.57 691.66 414.42   Q 674.46 437.89 655.55 460.01   Q 583.23 544.61 497.26 615.31   Q 497.19 615.36 496.71 615.65   Q 496.07 616.03 495.74 617.09   L 300.85 487.31   A 3.67 3.67 0.0 0 1 299.22 484.26   Q 299.29 419.03 299.24 353.25   Q 299.24 351.28 299.74 348.48   A 0.70 0.70 0.0 0 1 300.33 347.91   Q 302.17 347.66 303.99 347.66   Q 512.47 347.64 721.58 347.67   A 4.19 4.19 0.0 0 1 725.76 351.87   L 725.74 362.09   Z"
     id="path23" />
  <path
     fill="#dadada"
     d="   M 725.74 362.09   L 725.59 485.41   Q 725.58 485.92 725.16 486.21   Q 632.77 548.78 540.03 610.62   Q 526.30 619.78 523.03 621.04   Q 509.58 626.23 495.74 617.09   Q 496.07 616.03 496.71 615.65   Q 497.19 615.36 497.26 615.31   Q 583.23 544.61 655.55 460.01   Q 674.46 437.89 691.66 414.42   C 693.75 411.57 696.19 407.49 698.71 404.09   Q 712.38 385.67 722.40 365.79   Q 723.57 363.46 725.74 362.09   Z"
     id="path24" />
  <path
     fill="#dadada"
     d="   M 785.70 384.85   C 800.14 395.12 809.54 410.03 813.32 427.30   Q 813.42 427.77 813.03 428.03   L 757.93 464.52   A 0.39 0.39 0.0 0 1 757.33 464.20   L 757.22 366.76   Q 757.21 366.03 757.85 366.40   Q 769.25 373.14 785.70 384.85   Z"
     id="path25" />
  <path
     fill="#dadada"
     d="   M 211.91 427.57   C 215.15 411.51 225.24 396.60 237.52 386.79   C 244.91 380.88 257.27 372.97 267.31 366.92   A 0.40 0.39 74.3 0 1 267.91 367.26   L 268.08 463.17   Q 268.08 465.32 266.29 464.13   L 212.26 428.41   A 0.81 0.81 0.0 0 1 211.91 427.57   Z"
     id="path26" />
  <path
     fill="#c0c0c2"
     d="   M 177.06 431.79   Q 175.13 445.13 175.13 463.50   C 175.11 554.80 174.91 646.11 175.51 737.41   C 175.66 760.31 183.07 782.02 196.37 800.62   Q 220.56 834.44 260.58 842.35   Q 266.77 843.58 276.48 844.12   C 283.59 844.52 290.58 844.92 297.85 844.84   Q 331.30 844.51 364.75 844.92   C 365.73 844.93 366.71 844.64 367.59 844.66   Q 388.29 845.21 409.01 844.91   C 432.22 844.57 455.44 844.99 478.67 844.69   C 488.31 844.56 502.84 845.39 515.00 844.50   Q 521.24 844.04 536.26 844.44   Q 549.50 844.80 562.75 844.70   Q 577.44 844.60 582.75 844.63   Q 623.50 844.87 664.25 844.85   C 669.84 844.85 676.56 844.40 682.25 844.49   C 698.93 844.78 714.79 845.06 732.24 844.42   Q 739.00 844.18 745.76 844.12   C 781.08 843.81 810.83 827.12 830.68 797.94   L 829.66 803.71   Q 829.58 804.17 829.20 804.44   Q 828.18 805.16 827.87 806.49   C 827.10 809.76 824.69 811.92 823.08 814.13   Q 815.99 823.83 811.04 829.52   Q 810.54 830.10 809.29 830.59   Q 808.86 830.76 808.59 831.14   Q 805.71 835.18 801.81 838.20   C 800.41 839.28 798.52 839.60 796.77 841.54   Q 794.16 844.43 790.33 846.76   Q 783.61 850.87 783.48 850.95   Q 774.84 856.61 765.20 860.35   Q 762.99 861.21 759.14 861.75   C 756.37 862.14 753.36 863.06 750.96 863.49   C 745.60 864.45 740.38 865.53 734.95 865.76   Q 719.68 866.44 704.40 866.20   Q 704.00 866.19 703.91 865.80   Q 703.85 865.50 703.50 865.54   Q 696.31 866.33 690.22 866.55   Q 677.43 867.03 677.30 867.04   Q 666.73 867.61 656.14 867.62   C 653.00 867.62 646.67 868.22 641.93 867.60   Q 637.54 867.02 635.03 867.06   Q 617.64 867.34 600.26 866.96   Q 594.53 866.83 577.19 867.25   Q 576.70 867.26 576.26 867.48   Q 575.39 867.91 574.00 867.90   Q 552.37 867.88 535.24 867.38   C 521.01 866.97 506.93 867.49 492.75 867.44   Q 489.05 867.43 482.51 868.37   C 481.48 868.51 480.24 867.73 478.98 867.77   Q 456.40 868.50 433.83 867.57   Q 428.14 867.34 419.17 867.23   C 412.62 867.15 405.83 866.67 399.60 866.72   Q 354.29 867.06 308.98 867.22   Q 308.92 867.22 297.05 867.43   Q 284.19 867.64 271.38 866.37   Q 271.23 866.36 263.35 865.82   Q 256.07 865.32 247.75 862.78   Q 238.78 860.04 232.71 857.23   Q 232.07 856.93 228.64 855.66   Q 226.54 854.89 224.77 853.53   Q 222.77 852.00 221.15 851.24   Q 218.73 850.11 217.44 848.95   Q 215.89 847.55 214.73 846.77   Q 212.47 845.24 212.44 845.21   Q 205.27 839.57 202.23 836.63   Q 192.61 827.33 184.00 813.02   Q 182.50 810.51 181.77 808.69   Q 180.29 804.96 180.27 804.92   Q 174.81 793.87 173.35 787.25   Q 172.46 783.21 171.70 780.60   Q 170.65 776.98 170.36 774.25   C 170.00 770.86 169.26 767.51 169.18 764.20   Q 168.64 742.14 169.30 720.08   Q 169.31 719.86 169.52 719.76   Q 169.63 719.71 169.75 719.65   Q 169.87 719.59 169.86 719.45   C 169.14 705.44 169.52 692.47 169.52 677.41   Q 169.52 668.82 170.17 660.24   C 170.44 656.63 169.71 652.27 170.07 649.26   C 170.64 644.57 170.26 639.09 170.41 635.23   C 170.95 621.06 170.53 604.00 170.59 592.74   Q 170.73 563.12 170.69 533.50   Q 170.67 523.35 170.91 513.50   Q 171.66 483.25 172.35 453.00   Q 172.59 442.41 174.41 434.50   Q 174.84 432.63 176.76 430.94   Q 177.00 430.73 177.02 431.05   L 177.06 431.79   Z"
     id="path28" />
  <path
     fill="#ffffff"
     d="   M 210.37 745.63   Q 208.94 746.66 207.53 747.24   A 0.53 0.53 0.0 0 1 206.79 746.75   L 206.60 463.79   Q 206.60 463.06 207.20 463.46   L 408.20 598.44   Q 408.67 598.75 408.21 599.08   C 342.23 647.79 276.97 697.70 210.37 745.63   Z"
     id="path29" />
  <path
     fill="#ffffff"
     d="   M 617.57 598.60   L 817.83 463.57   A 0.52 0.52 0.0 0 1 818.64 464.00   L 818.69 745.32   Q 818.69 747.87 816.64 746.36   L 617.55 599.50   Q 616.92 599.03 617.57 598.60   Z"
     id="path30" />
  <path
     fill="#ffffff"
     d="   M 490.38 651.41   C 507.64 658.91 529.83 657.51 546.12 645.96   Q 559.73 636.32 573.53 626.93   Q 579.60 622.80 582.91 621.98   C 591.31 619.88 598.76 626.00 606.51 631.71   Q 705.59 704.72 804.78 777.58   Q 805.21 777.90 805.01 778.39   Q 803.92 781.04 802.19 783.47   Q 782.16 811.69 747.00 811.73   Q 514.25 811.97 281.50 812.01   C 255.68 812.02 234.08 801.92 220.86 779.25   A 0.99 0.99 0.0 0 1 221.14 777.95   C 285.03 731.97 347.84 684.44 411.06 637.55   Q 424.87 627.30 428.66 624.91   C 437.84 619.11 445.01 621.18 453.59 627.19   Q 463.47 634.12 473.34 641.02   Q 484.58 648.88 490.38 651.41   Z"
     id="path31" />
  <text
     xml:space="preserve"
     style="font-style:normal;font-variant:normal;font-weight:normal;font-stretch:normal;font-size:18.6667px;font-family:Monospace;-inkscape-font-specification:Monospace;fill:#000000"
     x="279.62579"
     y="779.32745"
     id="text31"><tspan
       sodipodi:role="line"
       id="tspan31"
       x="279.62579"
       y="779.32745"
       style="font-style:normal;font-variant:normal;font-weight:normal;font-stretch:normal;font-size:18.6667px;font-family:Monospace;-inkscape-font-specification:Monospace" /></text>
  <text
     xml:space="preserve"
     style="font-style:normal;font-variant:normal;font-weight:normal;font-stretch:normal;font-size:18.6667px;font-family:Monospace;-inkscape-font-specification:Monospace;fill:#000000"
     x="277.03665"
     y="762.49805"
     id="text32"><tspan
       sodipodi:role="line"
       x="277.03665"
       y="762.49805"
       id="tspan35"
       style="font-style:normal;font-variant:normal;font-weight:bold;font-stretch:normal;font-family:Monospace;-inkscape-font-specification:'Monospace Bold'">MAIL FROM: &lt;unique-verp-addr@provider.com&gt;</tspan><tspan
       sodipodi:role="line"
       x="277.03665"
       y="785.83142"
       id="tspan37"
       style="font-style:normal;font-variant:normal;font-weight:bold;font-stretch:normal;font-family:Monospace;-inkscape-font-specification:'Monospace Bold'">RCPT TO: &lt;recipient@example.com&gt;</tspan></text>
  <text
     xml:space="preserve"
     style="font-style:normal;font-variant:normal;font-weight:normal;font-stretch:normal;font-size:18.6667px;font-family:Monospace;-inkscape-font-specification:Monospace;fill:#000000"
     x="346.94312"
     y="394.84198"
     id="text33"><tspan
       sodipodi:role="line"
       id="tspan33"
       x="346.94312"
       y="394.84198"
       style="font-style:normal;font-variant:normal;font-weight:bold;font-stretch:normal;font-family:Monospace;-inkscape-font-specification:'Monospace Bold'">From: &lt;sender@example.com&gt;</tspan><tspan
       sodipodi:role="line"
       x="346.94312"
       y="418.17535"
       id="tspan34"
       style="font-style:normal;font-variant:normal;font-weight:bold;font-stretch:normal;font-family:Monospace;-inkscape-font-specification:'Monospace Bold'">To: &lt;recipient@example.com&gt;</tspan><tspan
       sodipodi:role="line"
       x="346.94312"
       y="441.50873"
       style="font-style:normal;font-variant:normal;font-weight:bold;font-stretch:normal;font-family:Monospace;-inkscape-font-specification:'Monospace Bold'"
       id="tspan38" /><tspan
       sodipodi:role="line"
       x="346.94312"
       y="464.8421"
       style="font-style:normal;font-variant:normal;font-weight:bold;font-stretch:normal;font-family:Monospace;-inkscape-font-specification:'Monospace Bold'"
       id="tspan39">Subject: Hello!</tspan><tspan
       sodipodi:role="line"
       x="346.94312"
       y="488.17548"
       style="font-style:normal;font-variant:normal;font-weight:bold;font-stretch:normal;font-family:Monospace;-inkscape-font-specification:'Monospace Bold'"
       id="tspan40" /><tspan
       sodipodi:role="line"
       x="346.94312"
       y="511.50885"
       style="font-style:normal;font-variant:normal;font-weight:bold;font-stretch:normal;font-family:Monospace;-inkscape-font-specification:'Monospace Bold'"
       id="tspan41">I'm writing you in order…</tspan></text>
</svg>
