<?xml version="1.0" encoding="UTF-8" standalone="no"?>
<!-- Created with Inkscape (http://www.inkscape.org/) -->

<svg
   width="183mm"
   height="184mm"
   viewBox="0 0 183 184"
   version="1.1"
   id="svg1"
   inkscape:version="1.3 (0e150ed, 2023-07-21)"
   sodipodi:docname="envelope.svg"
   xmlns:inkscape="http://www.inkscape.org/namespaces/inkscape"
   xmlns:sodipodi="http://sodipodi.sourceforge.net/DTD/sodipodi-0.dtd"
   xmlns="http://www.w3.org/2000/svg"
   xmlns:svg="http://www.w3.org/2000/svg">
  <sodipodi:namedview
     id="namedview1"
     pagecolor="#ffffff"
     bordercolor="#000000"
     borderopacity="0.25"
     inkscape:showpageshadow="2"
     inkscape:pageopacity="0.0"
     inkscape:pagecheckerboard="0"
     inkscape:deskcolor="#d1d1d1"
     inkscape:document-units="mm"
     inkscape:zoom="0.7046647"
     inkscape:cx="407.99546"
     inkscape:cy="407.99546"
     inkscape:window-width="1392"
     inkscape:window-height="934"
     inkscape:window-x="0"
     inkscape:window-y="25"
     inkscape:window-maximized="0"
     inkscape:current-layer="layer1" />
  <defs
     id="defs1" />
  <g
     inkscape:label="Kiht 1"
     inkscape:groupmode="layer"
     id="layer1">
    <path
       fill="#00182c"
       d="m 181.51868,133.67612 q -0.0212,4.9874 -0.0212,9.97479 0,4.68577 -0.0317,5.28902 -0.43127,8.38994 -5.08,15.53105 c -5.25198,7.72054 -13.12333,12.13643 -22.46841,12.21845 q -1.78859,0.0159 -3.57717,0.0794 c -4.61698,0.16933 -8.81327,0.0952 -13.22652,0.0185 -1.50548,-0.0238 -3.28348,0.0952 -4.7625,0.0952 q -10.78177,0.005 -21.56354,-0.0582 -1.40494,-0.008 -5.29167,0.0185 -3.50573,0.0265 -7.008807,-0.0688 -3.97404,-0.10583 -5.62504,0.0159 c -3.21734,0.23548 -7.061732,0.0159 -9.612315,0.0503 -6.146271,0.0794 -12.289896,-0.0317 -18.430875,0.0582 q -5.482167,0.0794 -10.959042,-0.0661 c -0.232833,-0.005 -0.492125,0.0714 -0.751416,0.0688 q -8.850313,-0.10848 -17.700625,-0.0212 c -1.923521,0.0212 -3.772958,-0.0847 -5.654146,-0.1905 Q 27.1846,176.54656 25.546829,176.22112 14.958204,174.12827 8.557934,165.18006 C 5.038975,160.25881 3.078413,154.5147 3.038725,148.45575 2.879975,124.29929 2.932892,100.14018 2.938184,75.983727 q 0,-4.8604 0.510645,-8.38994 0.592667,-3.40783 1.920875,-6.76011 2.88925,-6.65427 8.344959,-11.33475 1.439333,-1.23825 4.307416,-3.06387 Q 49.369912,26.472245 80.037766,5.4775575 c 1.881167,-1.28852 4.246542,-2.582333 6.474337,-3.22527 q 8.40581,-2.42623002 15.832657,1.730375 0.73819,0.41275 4.42913,2.88925 23.55585,15.7903325 47.25723,31.3584155 5.79437,3.804708 11.65225,7.516809 2.91835,1.84944 4.33916,3.01625 10.23409,8.4164 11.37973,22.1615 0.14552,1.72773 0.13759,5.91873 -0.0609,28.413613 -0.0212,56.832503 z M 76.979163,36.743369 h 59.002077 q 0.16669,0 0.0291,-0.0926 Q 117.69059,24.416436 99.360253,12.20327 c -2.32039,-1.545167 -4.34181,-2.6114375 -7.12258,-2.4950205 q -2.8575,0.01587 -5.38692,1.6033745 c -3.063871,1.920875 -6.47435,4.328583 -8.9826,6.0325 Q 63.921975,26.821495 49.031226,36.685161 a 0.03439583,0.03439583 0 0 0 0.01852,0.06085 z m 10.78706,79.877711 q 3.66184,2.41829 7.22048,1.0451 0.86519,-0.33337 4.49792,-2.75695 24.537457,-16.361843 48.982307,-32.916823 0.11112,-0.0767 0.11377,-0.21166 l 0.0397,-32.62842 0.005,-2.70404 a 1.1086042,1.1086042 0 0 0 -1.10596,-1.11125 q -55.327017,-0.008 -110.487349,-0.003 -0.481541,0 -0.968375,0.0661 a 0.18520833,0.18520833 0 0 0 -0.156104,0.15081 q -0.132291,0.74083 -0.132291,1.26206 0.01323,17.4043 -0.0053,34.66307 a 0.97102082,0.97102082 0 0 0 0.431271,0.80698 z M 171.7926,66.405807 c -1.00013,-4.56935 -3.48721,-8.51429 -7.3078,-11.23156 q -4.35239,-3.09827 -7.36864,-4.88157 -0.16933,-0.0979 -0.16669,0.0953 l 0.0291,25.781 a 0.1031875,0.1031875 0 0 0 0.15875,0.0847 l 14.57854,-9.65464 q 0.10318,-0.0688 0.0767,-0.19315 z M 19.445518,55.687537 c -3.249084,2.59556 -5.91873,6.5405 -6.77598,10.78971 a 0.2143125,0.2143125 0 0 0 0.0926,0.22225 l 14.295437,9.45091 q 0.473604,0.31486 0.473604,-0.254 l -0.04498,-25.37618 a 0.10583333,0.1031875 74.3 0 0 -0.15875,-0.09 c -2.656417,1.60073 -5.926667,3.69358 -7.881937,5.25727 z M 12.26208,150.63062 c 17.62125,-12.68148 34.887958,-25.88683 52.345166,-38.77469 q 0.121708,-0.0873 -0.0026,-0.16933 L 11.423351,75.973137 q -0.15875,-0.10583 -0.15875,0.0873 l 0.05027,74.866493 a 0.14022916,0.14022916 0 0 0 0.195791,0.12965 q 0.373063,-0.15346 0.751417,-0.42598 z M 172.98587,76.002247 120.00041,111.72893 q -0.17198,0.11377 -0.005,0.23813 l 52.67589,38.85671 q 0.5424,0.39952 0.5424,-0.27517 l -0.0132,-74.432583 a 0.13758333,0.13758333 0 0 0 -0.21431,-0.11377 z M 101.09593,124.2596 c -4.310057,3.05594 -10.181167,3.42635 -14.747872,1.44198 q -1.534583,-0.6694 -4.5085,-2.74902 -2.611437,-1.82563 -5.22552,-3.65919 c -2.270125,-1.59014 -4.167188,-2.13783 -6.596063,-0.60325 q -1.002771,0.63236 -4.656666,3.34433 c -16.726958,12.40632 -33.345437,24.98196 -50.249666,37.1475 a 0.2619375,0.2619375 0 0 0 -0.07408,0.34396 c 3.497792,5.99811 9.212792,8.6704 16.044333,8.66775 q 61.581767,-0.0106 123.163534,-0.0741 9.30275,-0.0106 14.60235,-7.47713 0.45773,-0.64293 0.74613,-1.34408 0.0529,-0.12964 -0.0609,-0.21431 -26.24402,-19.27754 -52.45893,-38.59477 c -2.05052,-1.51077 -4.02167,-3.13002 -6.24417,-2.5744 q -0.87577,0.21696 -2.48179,1.30969 -3.65125,2.48444 -7.25223,5.03502 z"
       id="path20"
       style="stroke-width:0.264583" />
    <path
       fill="#ffffff"
       d="m 92.237683,9.7082455 c 1.41023,2.9501035 1.44727,5.8763955 0.30427,8.8794155 q -0.62177,1.629834 -1.26735,2.561167 -5.921378,8.527521 -13.999107,14.634104 -0.460375,0.34925 -0.296333,0.960437 l -27.929417,0.0026 a 0.03439583,0.03439583 0 0 1 -0.01852,-0.06085 Q 63.921975,26.821495 77.868163,17.34412 c 2.50825,-1.703917 5.918729,-4.111625 8.9826,-6.0325 q 2.52942,-1.5874995 5.38692,-1.6033745 z"
       id="path21"
       style="stroke-width:0.264583" />
    <path
       fill="#dadada"
       d="m 92.237683,9.7082455 c 2.78077,-0.116417 4.80219,0.9498535 7.12258,2.4950205 q 18.330337,12.213166 36.650087,24.447499 0.13758,0.0926 -0.0291,0.0926 H 76.979163 q -0.164042,-0.611187 0.296333,-0.960437 8.077729,-6.106583 13.999107,-14.634104 0.64558,-0.931333 1.26735,-2.561167 c 1.143,-3.00302 1.10596,-5.929312 -0.30427,-8.8794155 z"
       id="path22"
       style="stroke-width:0.264583" />
    <path
       fill="#ffffff"
       d="m 148.62039,49.152327 q -0.57415,0.36248 -0.88371,0.97896 -2.65113,5.25992 -6.26798,10.13354 c -0.66675,0.89958 -1.31233,1.97908 -1.86531,2.73315 q -4.55084,6.20977 -9.55411,12.06235 -19.13466,22.38375 -41.880887,41.089793 -0.0185,0.0132 -0.14552,0.09 -0.16934,0.10054 -0.25665,0.381 L 36.20158,82.283457 a 0.97102082,0.97102082 0 0 1 -0.431271,-0.80698 q 0.01852,-17.25877 0.0053,-34.66307 0,-0.52123 0.132291,-1.26206 a 0.18520833,0.18520833 0 0 1 0.156104,-0.15081 q 0.486834,-0.0661 0.968375,-0.0661 55.160334,-0.005 110.487351,0.003 a 1.1086042,1.1086042 0 0 1 1.10596,1.11125 z"
       id="path23"
       style="stroke-width:0.264583" />
    <path
       fill="#dadada"
       d="m 148.62039,49.152327 -0.0397,32.62842 q -0.003,0.13493 -0.11377,0.21166 -24.44485,16.55498 -48.982307,32.916823 -3.63273,2.42358 -4.49792,2.75695 -3.55864,1.37319 -7.22048,-1.0451 0.0873,-0.28046 0.25665,-0.381 0.127,-0.0767 0.14552,-0.09 22.746227,-18.706043 41.880887,-41.089793 5.00327,-5.85258 9.55411,-12.06235 c 0.55298,-0.75407 1.19856,-1.83357 1.86531,-2.73315 q 3.61685,-4.87362 6.26798,-10.13354 0.30956,-0.61648 0.88371,-0.97896 z"
       id="path24"
       style="stroke-width:0.264583" />
    <path
       fill="#dadada"
       d="m 164.4848,55.174247 c 3.82059,2.71727 6.30767,6.66221 7.3078,11.23156 q 0.0264,0.12435 -0.0767,0.19315 l -14.57854,9.65464 a 0.1031875,0.1031875 0 0 1 -0.15875,-0.0847 l -0.0291,-25.781 q -0.003,-0.19314 0.16669,-0.0953 3.01625,1.7833 7.36864,4.88157 z"
       id="path25"
       style="stroke-width:0.264583" />
    <path
       fill="#dadada"
       d="m 12.669538,66.477247 c 0.85725,-4.24921 3.526896,-8.19415 6.77598,-10.78971 1.95527,-1.56369 5.22552,-3.65654 7.881937,-5.25727 a 0.10583333,0.1031875 74.3 0 1 0.15875,0.09 l 0.04498,25.37618 q 0,0.56886 -0.473604,0.254 l -14.295438,-9.45095 a 0.2143125,0.2143125 0 0 1 -0.0926,-0.22225 z"
       id="path26"
       style="stroke-width:0.264583" />
    <path
       fill="#c0c0c2"
       d="m 3.448809,67.593787 q -0.510645,3.52954 -0.510645,8.38994 c -0.0053,24.156453 -0.05821,48.315563 0.100541,72.472023 0.03969,6.05895 2.00025,11.80306 5.519209,16.72431 q 6.40027,8.94821 16.988895,11.04106 1.637771,0.32544 4.206875,0.46831 c 1.881188,0.10584 3.730625,0.21167 5.654146,0.1905 q 8.850312,-0.0873 17.700625,0.0212 c 0.259291,0.003 0.518583,-0.0741 0.751416,-0.0688 q 5.476875,0.14552 10.959042,0.0661 c 6.140979,-0.0899 12.284604,0.0212 18.430875,-0.0582 2.550583,-0.0344 6.394975,0.1852 9.612315,-0.0503 q 1.651,-0.1217 5.62504,-0.0159 3.503077,0.0952 7.008807,0.0688 3.88673,-0.0265 5.29167,-0.0185 10.78177,0.0635 21.56354,0.0582 c 1.47902,0 3.25702,-0.11906 4.7625,-0.0952 4.41325,0.0767 8.60954,0.15081 13.22652,-0.0185 q 1.78858,-0.0635 3.57717,-0.0794 c 9.34508,-0.082 17.21643,-4.49791 22.46841,-12.21845 l -0.26987,1.52664 q -0.0212,0.12171 -0.12171,0.19315 -0.26988,0.1905 -0.3519,0.54239 c -0.20373,0.86519 -0.84137,1.43669 -1.26735,2.02142 q -1.8759,2.56646 -3.18558,4.07194 -0.1323,0.15345 -0.46302,0.2831 -0.11378,0.045 -0.18521,0.14552 -0.762,1.06892 -1.79388,1.86796 c -0.37041,0.28575 -0.87048,0.37042 -1.3335,0.88371 q -0.69056,0.76464 -1.70391,1.38112 -1.778,1.08744 -1.8124,1.10861 -2.286,1.49754 -4.83658,2.48708 -0.58473,0.22754 -1.60338,0.37042 c -0.73289,0.10318 -1.52929,0.3466 -2.16429,0.46037 -1.41817,0.254 -2.79929,0.53975 -4.23598,0.60061 q -4.04019,0.17991 -8.08302,0.11641 -0.10583,-0.003 -0.12965,-0.10583 -0.0159,-0.0794 -0.10848,-0.0688 -1.90235,0.20902 -3.51366,0.26723 -3.38402,0.127 -3.41842,0.12964 -2.79664,0.15082 -5.59858,0.15346 c -0.83079,0 -2.50561,0.15875 -3.75973,-0.005 q -1.16152,-0.15346 -1.82563,-0.14288 -4.6011,0.0741 -9.19956,-0.0265 -1.51606,-0.0344 -6.10394,0.0767 -0.12964,0.003 -0.24606,0.0609 -0.23019,0.11377 -0.59796,0.11112 -5.72293,-0.005 -10.255247,-0.13758 c -3.76502,-0.10848 -7.49035,0.0291 -11.24214,0.0159 q -0.97896,-0.003 -2.709335,0.24606 c -0.272521,0.037 -0.600605,-0.16933 -0.93398,-0.15875 q -5.974291,0.19314 -11.945937,-0.0529 -1.505479,-0.0609 -3.878792,-0.09 c -1.73302,-0.0212 -3.529541,-0.14816 -5.177895,-0.13493 q -11.988271,0.09 -23.976542,0.13229 -0.01588,0 -3.156479,0.0556 -3.402541,0.0556 -6.791854,-0.28046 -0.03969,-0.003 -2.124604,-0.14552 -1.926167,-0.13229 -4.1275,-0.80433 -2.373312,-0.72496 -3.979333,-1.46844 -0.169334,-0.0794 -1.076854,-0.4154 -0.555625,-0.20372 -1.023938,-0.56356 -0.529167,-0.40481 -0.957792,-0.60589 -0.640291,-0.29898 -0.981604,-0.6059 -0.410104,-0.37042 -0.717021,-0.57679 -0.597958,-0.40481 -0.605895,-0.41275 -1.897063,-1.49225 -2.701396,-2.27013 -2.545292,-2.46062 -4.823354,-6.24681 -0.396875,-0.6641 -0.590021,-1.14564 -0.391583,-0.9869 -0.396875,-0.99748 -1.444625,-2.92365 -1.830917,-4.67519 -0.235479,-1.06892 -0.436562,-1.75948 -0.277813,-0.95779 -0.354542,-1.6801 c -0.09525,-0.89694 -0.291042,-1.7833 -0.312208,-2.65907 q -0.142875,-5.8367 0.03175,-11.67341 0.0026,-0.0582 0.05821,-0.0847 0.0291,-0.0132 0.06085,-0.0291 0.03175,-0.0159 0.0291,-0.0529 c -0.1905,-3.70681 -0.08996,-7.13846 -0.08996,-11.12308 q 0,-2.27277 0.171979,-4.5429 c 0.07144,-0.95515 -0.121708,-2.10873 -0.02646,-2.90512 0.150812,-1.2409 0.05027,-2.69082 0.08996,-3.71211 0.142875,-3.74914 0.03175,-8.26294 0.04763,-11.24214 q 0.03704,-7.83696 0.02646,-15.673923 -0.0053,-2.68552 0.05821,-5.29167 0.198437,-8.00364 0.381,-16.00729 0.0635,-2.80194 0.545042,-4.89479 0.11377,-0.49477 0.62177,-0.94192 0.0635,-0.0556 0.06879,0.0291 z"
       id="path28"
       style="stroke-width:0.264583" />
    <path
       fill="#ffffff"
       d="m 12.26208,150.63062 q -0.378354,0.27252 -0.751417,0.42598 a 0.14022916,0.14022916 0 0 1 -0.195791,-0.12965 l -0.05027,-74.866493 q 0,-0.19315 0.15875,-0.0873 l 53.181249,35.713463 q 0.124354,0.082 0.0026,0.16933 C 47.150038,124.74379 29.88333,137.94914 12.26208,150.63062 Z"
       id="path29"
       style="stroke-width:0.264583" />
    <path
       fill="#ffffff"
       d="m 120.00041,111.72893 52.98546,-35.726683 a 0.13758333,0.13758333 0 0 1 0.21431,0.11377 l 0.0132,74.432583 q 0,0.67469 -0.5424,0.27517 l -52.67589,-38.85671 q -0.16669,-0.12436 0.005,-0.23813 z"
       id="path30"
       style="stroke-width:0.264583" />
    <path
       fill="#ffffff"
       d="m 86.348058,125.70158 c 4.566705,1.98437 10.437815,1.61396 14.747872,-1.44198 q 3.60098,-2.55058 7.25223,-5.03502 1.60602,-1.09273 2.48179,-1.30969 c 2.2225,-0.55562 4.19365,1.06363 6.24417,2.5744 q 26.21491,19.31723 52.45893,38.59477 0.11378,0.0847 0.0609,0.21431 -0.2884,0.70115 -0.74613,1.34408 -5.2996,7.46655 -14.60235,7.47713 -61.581767,0.0635 -123.163538,0.0741 c -6.831541,0.003 -12.546541,-2.66964 -16.044333,-8.66775 a 0.2619375,0.2619375 0 0 1 0.07408,-0.34396 c 16.904229,-12.16554 33.522708,-24.74118 50.249666,-37.1475 q 3.653895,-2.71197 4.656666,-3.34433 c 2.428875,-1.53458 4.325938,-0.98689 6.596063,0.60325 q 2.614083,1.83356 5.22552,3.65919 2.973917,2.07962 4.5085,2.74902 z"
       id="path31"
       style="stroke-width:0.264583" />
    <text
       xml:space="preserve"
       style="font-style:normal;font-variant:normal;font-weight:normal;font-stretch:normal;font-size:4.9389px;font-family:Monospace;-inkscape-font-specification:Monospace;fill:#000000;stroke-width:0.264583"
       x="29.900967"
       y="155.09363"
       id="text32"><tspan
         sodipodi:role="line"
         x="29.900967"
         y="155.09363"
         id="tspan35"
         style="font-style:normal;font-variant:normal;font-weight:bold;font-stretch:normal;font-family:Monospace;-inkscape-font-specification:'Monospace Bold';stroke-width:0.264583">MAIL FROM: &lt;unique-verp-addr@provider.com&gt;</tspan><tspan
         sodipodi:role="line"
         x="29.900967"
         y="161.26726"
         id="tspan37"
         style="font-style:normal;font-variant:normal;font-weight:bold;font-stretch:normal;font-family:Monospace;-inkscape-font-specification:'Monospace Bold';stroke-width:0.264583">RCPT TO: &lt;recipient@example.com&gt;</tspan></text>
    <text
       xml:space="preserve"
       style="font-style:normal;font-variant:normal;font-weight:normal;font-stretch:normal;font-size:4.9389px;font-family:Monospace;-inkscape-font-specification:Monospace;fill:#000000;stroke-width:0.264583"
       x="48.397049"
       y="57.817955"
       id="text33"><tspan
         sodipodi:role="line"
         id="tspan33"
         x="48.397049"
         y="57.817955"
         style="font-style:normal;font-variant:normal;font-weight:bold;font-stretch:normal;font-family:Monospace;-inkscape-font-specification:'Monospace Bold';stroke-width:0.264583">From: &lt;sender@example.com&gt;</tspan><tspan
         sodipodi:role="line"
         x="48.397049"
         y="63.991581"
         id="tspan34"
         style="font-style:normal;font-variant:normal;font-weight:bold;font-stretch:normal;font-family:Monospace;-inkscape-font-specification:'Monospace Bold';stroke-width:0.264583">To: &lt;recipient@example.com&gt;</tspan><tspan
         sodipodi:role="line"
         x="48.397049"
         y="70.165207"
         style="font-style:normal;font-variant:normal;font-weight:bold;font-stretch:normal;font-family:Monospace;-inkscape-font-specification:'Monospace Bold';stroke-width:0.264583"
         id="tspan38" /><tspan
         sodipodi:role="line"
         x="48.397049"
         y="76.338829"
         style="font-style:normal;font-variant:normal;font-weight:bold;font-stretch:normal;font-family:Monospace;-inkscape-font-specification:'Monospace Bold';stroke-width:0.264583"
         id="tspan39">Subject: Hello!</tspan><tspan
         sodipodi:role="line"
         x="48.397049"
         y="82.512451"
         style="font-style:normal;font-variant:normal;font-weight:bold;font-stretch:normal;font-family:Monospace;-inkscape-font-specification:'Monospace Bold';stroke-width:0.264583"
         id="tspan40" /><tspan
         sodipodi:role="line"
         x="48.397049"
         y="88.686081"
         style="font-style:normal;font-variant:normal;font-weight:bold;font-stretch:normal;font-family:Monospace;-inkscape-font-specification:'Monospace Bold';stroke-width:0.264583"
         id="tspan41">I'm writing to you in order…</tspan></text>
  </g>
</svg>
