<?xml version="1.0" encoding="UTF-8" standalone="no"?>
<svg
   version="1.1"
   viewBox="0.00 0.00 1024.00 1024.00"
   id="svg191"
   sodipodi:docname="_9b48c749-c78a-40a0-9f9b-d28006e69ba6.svg"
   inkscape:version="1.3 (0e150ed, 2023-07-21)"
   xmlns:inkscape="http://www.inkscape.org/namespaces/inkscape"
   xmlns:sodipodi="http://sodipodi.sourceforge.net/DTD/sodipodi-0.dtd"
   xmlns="http://www.w3.org/2000/svg"
   xmlns:svg="http://www.w3.org/2000/svg">
  <defs
     id="defs191" />
  <sodipodi:namedview
     id="namedview191"
     pagecolor="#ffffff"
     bordercolor="#000000"
     borderopacity="0.25"
     inkscape:showpageshadow="2"
     inkscape:pageopacity="0.0"
     inkscape:pagecheckerboard="0"
     inkscape:deskcolor="#d1d1d1"
     inkscape:zoom="0.77246094"
     inkscape:cx="512"
     inkscape:cy="512"
     inkscape:window-width="1392"
     inkscape:window-height="934"
     inkscape:window-x="0"
     inkscape:window-y="25"
     inkscape:window-maximized="0"
     inkscape:current-layer="svg191" />
  <g
     stroke-width="2.00"
     fill="none"
     stroke-linecap="butt"
     id="g127">
    <path
       stroke="#e1e6ed"
       vector-effect="non-scaling-stroke"
       d="   M 263.17 845.50   Q 259.61 854.36 258.75 860.99   C 257.60 869.74 261.76 880.53 272.25 880.58   Q 382.11 881.08 576.93 880.58   C 647.21 880.40 717.55 880.73 787.87 880.70   C 791.79 880.70 797.93 880.60 801.24 879.04   C 810.61 874.62 810.70 856.49 805.33 849.29   Q 803.92 847.41 802.92 845.49"
       id="path1" />
    <path
       stroke="#828ba0"
       vector-effect="non-scaling-stroke"
       d="   M 802.92 845.49   Q 834.40 845.52 865.69 845.48   C 878.00 845.47 882.43 828.44 870.83 823.44   Q 868.07 822.25 861.98 822.25   Q 824.20 822.26 785.47 822.23   Q 783.84 822.23 784.90 820.99   C 794.94 809.30 798.09 795.12 795.12 779.07   A 0.52 0.51 86.4 0 1 795.65 778.46   C 804.30 778.98 814.16 776.72 814.27 765.93   A 0.79 0.79 0.0 0 1 814.82 765.19   C 850.16 754.05 862.01 717.56 852.55 683.88   Q 852.32 683.08 853.13 682.87   Q 877.16 676.87 901.32 670.72   Q 914.93 667.26 920.20 664.38   C 937.10 655.16 946.71 635.08 941.59 615.83   Q 925.99 557.16 910.68 498.41   Q 907.34 485.62 903.53 473.00   C 896.83 450.86 874.25 434.01 850.81 440.32   Q 836.69 444.13 822.70 447.89   A 0.32 0.32 0.0 0 1 822.31 447.51   C 830.78 411.98 812.39 377.45 777.88 365.27   C 773.74 363.80 768.83 362.71 764.18 361.73   Q 763.57 361.60 763.84 361.04   Q 768.41 351.57 768.48 341.75   C 768.63 320.45 758.34 305.21 741.35 293.26   A 0.86 0.84 21.6 0 1 740.99 292.45   C 746.66 251.97 712.70 221.41 673.44 227.26   A 0.66 0.65 -13.1 0 1 672.72 226.82   C 659.57 187.08 624.31 159.26 581.63 163.72   C 565.81 165.37 551.75 171.72 539.66 181.86   Q 539.23 182.22 538.86 181.79   C 523.94 164.56 498.03 156.59 476.56 158.57   Q 439.16 162.01 416.13 193.13   Q 413.84 196.23 408.80 204.80   Q 408.50 205.31 407.91 205.28   Q 377.42 203.79 358.69 227.19   Q 358.35 227.62 357.80 227.69   C 354.85 228.06 351.39 227.98 348.95 228.35   C 316.74 233.30 294.00 261.31 299.41 294.18   A 0.91 0.90 -24.3 0 1 299.09 295.02   C 277.80 312.30 269.55 334.81 278.59 361.46   Q 278.75 361.92 278.26 361.96   Q 272.92 362.34 267.58 362.81   C 222.97 366.78 192.01 404.99 202.46 449.69   C 203.57 454.43 205.96 459.59 207.83 464.52   Q 208.03 465.05 207.54 465.32   C 162.42 489.88 153.95 549.30 190.96 585.20   A 0.10 0.09 -47.4 0 1 190.96 585.33   C 160.76 621.96 169.13 674.15 210.69 698.23   A 0.74 0.73 22.2 0 1 211.04 699.04   C 201.99 735.70 225.38 768.56 261.33 777.55   Q 261.82 777.67 261.97 778.15   C 265.29 789.39 275.61 790.96 286.04 790.12   Q 286.64 790.07 286.66 790.68   Q 287.19 808.00 298.00 821.30   A 0.59 0.59 0.0 0 1 297.54 822.26   Q 245.26 822.22 192.57 822.28   C 179.43 822.30 175.29 840.01 187.39 844.58   Q 189.88 845.52 195.70 845.52   Q 229.26 845.49 263.17 845.50"
       id="path2" />
    <path
       stroke="#717d9d"
       vector-effect="non-scaling-stroke"
       d="   M 802.92 845.49   L 263.17 845.50"
       id="path3" />
    <path
       stroke="#e1e6ed"
       vector-effect="non-scaling-stroke"
       d="   M 848.42 869.13   A 10.04 10.04 0.0 0 0 838.38 859.09   A 10.04 10.04 0.0 0 0 828.34 869.13   A 10.04 10.04 0.0 0 0 838.38 879.17   A 10.04 10.04 0.0 0 0 848.42 869.13"
       id="path4" />
    <path
       stroke="#e1e6ed"
       vector-effect="non-scaling-stroke"
       d="   M 236.2865 866.8475   A 10.28 10.01 -13.0 0 0 224.0182 859.4066   A 10.28 10.01 -13.0 0 0 216.2535 871.4725   A 10.28 10.01 -13.0 0 0 228.5218 878.9134   A 10.28 10.01 -13.0 0 0 236.2865 866.8475"
       id="path5" />
    <path
       stroke="#7a86a1"
       vector-effect="non-scaling-stroke"
       d="   M 333.52 266.61   Q 325.34 276.25 325.90 289.34   C 326.00 291.79 327.45 293.29 328.79 295.19   Q 333.33 301.63 330.78 309.12   C 328.32 316.35 320.96 315.62 315.28 319.16   Q 303.81 326.31 302.98 340.40   C 302.72 344.85 307.58 351.23 309.80 355.03   Q 310.06 355.47 310.57 355.42   L 321.62 354.27"
       id="path6" />
    <path
       stroke="#717d9d"
       vector-effect="non-scaling-stroke"
       d="   M 321.62 354.27   L 334.60 353.73   A 0.62 0.62 0.0 0 0 335.19 353.18   C 336.29 343.79 347.82 340.45 353.61 348.05   C 354.81 349.62 355.38 351.50 355.97 353.44   Q 356.12 353.95 356.65 353.98   Q 370.29 354.68 383.77 356.99   Q 384.34 357.09 384.61 356.58   L 393.51 340.01   Q 393.82 339.43 393.17 339.51   C 386.68 340.30 377.91 337.91 375.55 331.32   Q 373.91 326.74 378.29 322.40"
       id="path7" />
    <path
       stroke="#7a86a1"
       vector-effect="non-scaling-stroke"
       d="   M 378.29 322.40   Q 381.99 322.35 386.06 322.28   C 394.20 322.15 404.04 319.81 407.49 311.40"
       id="path8" />
    <path
       stroke="#8891a8"
       vector-effect="non-scaling-stroke"
       d="   M 407.49 311.40   Q 410.19 306.39 415.77 305.99"
       id="path9" />
    <path
       stroke="#7a86a1"
       vector-effect="non-scaling-stroke"
       d="   M 415.77 305.99   C 419.86 306.22 422.14 308.18 424.31 311.87   C 439.39 337.50 472.03 345.99 499.19 336.67   Q 507.16 333.94 513.39 327.46   Q 513.75 327.09 513.76 326.58   L 514.03 318.10"
       id="path10" />
    <path
       stroke="#8891a8"
       vector-effect="non-scaling-stroke"
       d="   M 514.03 318.10   Q 515.42 311.79 521.27 309.15   C 523.20 308.28 526.75 307.91 528.49 308.80   Q 536.27 312.76 536.39 321.27"
       id="path11" />
    <path
       stroke="#7a86a1"
       vector-effect="non-scaling-stroke"
       d="   M 536.39 321.27   C 535.98 324.68 535.54 327.96 538.29 330.41   Q 542.91 334.53 548.06 336.48   C 572.48 345.74 600.25 337.68 618.17 319.21   C 622.13 315.13 623.90 310.13 628.98 306.43"
       id="path12" />
    <path
       stroke="#8891a8"
       vector-effect="non-scaling-stroke"
       d="   M 628.98 306.43   Q 637.85 304.39 641.60 314.14"
       id="path13" />
    <path
       stroke="#7a86a1"
       vector-effect="non-scaling-stroke"
       d="   M 641.60 314.14   Q 642.15 316.16 644.05 317.38   C 649.46 320.84 656.80 323.13 663.03 320.63   Q 666.90 319.08 671.19 317.84"
       id="path14" />
    <path
       stroke="#717d9d"
       vector-effect="non-scaling-stroke"
       d="   M 671.19 317.84   Q 675.49 323.87 672.21 329.41   C 666.68 338.76 650.54 339.46 641.32 336.90   Q 640.90 336.78 641.11 337.16   L 652.33 357.09   Q 652.57 357.53 653.05 357.43   Q 666.46 354.65 680.15 354.26   Q 680.71 354.24 680.88 353.70   C 681.63 351.33 682.44 349.42 684.09 347.66   C 690.28 341.10 701.88 343.39 702.72 353.21   Q 702.76 353.70 703.25 353.71   L 717.23 354.19"
       id="path15" />
    <path
       stroke="#7a86a1"
       vector-effect="non-scaling-stroke"
       d="   M 717.23 354.19   L 732.98 355.95   Q 733.48 356.00 733.73 355.57   Q 736.66 350.57 739.20 345.29   C 744.78 333.69 732.30 318.29 721.16 315.74   C 712.74 313.82 709.30 306.70 711.55 298.41   C 712.45 295.11 714.47 293.30 714.52 289.71   Q 714.61 281.64 711.59 274.17"
       id="path16" />
    <path
       stroke="#8891a8"
       vector-effect="non-scaling-stroke"
       d="   M 711.59 274.17   C 704.56 258.63 687.97 251.54 671.99 254.27   C 660.46 256.23 653.70 257.44 650.25 244.04   C 641.13 208.62 607.41 180.38 569.50 194.60   Q 555.31 199.92 546.93 213.68   C 543.14 219.92 533.00 221.06 529.33 213.92   Q 519.34 194.43 500.22 188.19   C 469.42 178.15 437.03 195.22 427.24 225.62   C 426.19 228.88 425.32 233.31 423.05 235.67   C 416.73 242.29 409.92 238.80 403.94 233.86   A 1.39 1.36 -25.5 0 0 403.04 233.55   C 387.25 233.83 379.74 242.23 372.37 254.96   Q 370.96 257.39 368.00 256.85   C 354.72 254.41 342.99 256.23 333.52 266.61"
       id="path17" />
    <path
       stroke="#f1f4f8"
       vector-effect="non-scaling-stroke"
       d="   M 711.59 274.17   C 704.76 277.78 700.88 283.11 694.58 287.66   C 691.93 289.57 688.97 289.37 686.27 291.86   C 675.69 301.65 662.45 306.84 648.09 303.61   A 1.27 1.27 0.0 0 0 646.55 304.71   Q 645.94 309.97 641.60 314.14"
       id="path18" />
    <path
       stroke="#f1f4f8"
       vector-effect="non-scaling-stroke"
       d="   M 628.98 306.43   Q 630.07 299.29 625.89 293.27   C 623.34 289.59 619.22 289.83 617.35 294.16   C 607.30 317.46 581.31 328.25 556.81 326.37   Q 547.97 325.69 536.39 321.27"
       id="path19" />
    <path
       stroke="#f1f4f8"
       vector-effect="non-scaling-stroke"
       d="   M 514.03 318.10   Q 499.63 326.14 485.23 326.49   Q 455.98 327.19 436.13 306.41   C 432.37 302.48 430.04 298.23 427.43 293.33   C 425.46 289.63 421.96 290.08 419.92 293.43   Q 416.49 299.09 415.77 305.99"
       id="path20" />
    <path
       stroke="#f1f4f8"
       vector-effect="non-scaling-stroke"
       d="   M 407.49 311.40   Q 406.35 311.17 405.85 309.41   A 0.76 0.76 0.0 0 0 405.06 308.86   Q 398.77 309.37 398.93 303.36   A 0.79 0.79 0.0 0 0 397.99 302.56   C 392.70 303.58 386.39 305.50 381.06 304.57   Q 368.70 302.42 358.51 295.08   Q 356.60 293.71 353.46 292.18   C 345.89 288.51 340.58 275.60 336.65 268.41   Q 336.02 267.27 333.52 266.61"
       id="path21" />
    <path
       stroke="#dae1ee"
       vector-effect="non-scaling-stroke"
       d="   M 717.23 354.19   Q 712.35 343.23 713.71 331.73   Q 713.82 330.76 712.89 330.52   C 699.13 326.96 685.42 326.30 685.19 308.00   Q 685.17 307.06 684.44 307.63   L 671.19 317.84"
       id="path22" />
    <path
       stroke="#dae1ee"
       vector-effect="non-scaling-stroke"
       d="   M 378.29 322.40   Q 365.83 316.42 355.37 308.45   A 0.43 0.42 -74.0 0 0 354.69 308.83   C 355.44 316.55 352.29 325.32 343.51 326.77   Q 341.24 327.14 332.58 329.61   C 323.69 332.14 329.37 348.87 324.28 349.88   Q 323.76 349.99 323.43 350.41   L 322.34 351.78   A 0.14 0.14 0.0 0 0 322.45 352.00   Q 322.61 352.00 322.77 352.00   A 0.21 0.21 0.0 0 1 322.91 352.36   Q 321.78 353.35 321.62 354.27"
       id="path23" />
    <path
       stroke="#8891a8"
       vector-effect="non-scaling-stroke"
       d="   M 405.94 371.20   Q 394.74 399.88 397.76 431.08"
       id="path24" />
    <path
       stroke="#717d9d"
       vector-effect="non-scaling-stroke"
       d="   M 397.76 431.08   C 400.91 464.54 418.08 492.13 446.63 509.22   C 472.51 524.71 504.66 531.96 534.69 525.19   Q 556.78 520.21 578.23 512.92   C 614.31 500.66 636.84 467.02 639.56 429.52"
       id="path25" />
    <path
       stroke="#8891a8"
       vector-effect="non-scaling-stroke"
       d="   M 639.56 429.52   Q 642.19 398.31 629.83 370.43"
       id="path26" />
    <path
       stroke="#717d9d"
       vector-effect="non-scaling-stroke"
       d="   M 629.83 370.43   Q 625.14 359.72 618.19 350.56   A 0.65 0.65 0.0 0 0 617.31 350.41   C 589.74 368.73 550.65 371.81 523.47 350.27   A 0.67 0.66 44.6 0 0 522.64 350.27   C 507.82 362.17 488.22 366.26 469.59 365.15   Q 441.88 363.50 421.24 345.57   Q 420.88 345.25 420.59 345.64   Q 411.76 357.70 405.94 371.20"
       id="path27" />
    <path
       stroke="#e8ecf5"
       vector-effect="non-scaling-stroke"
       d="   M 629.83 370.43   L 603.51 384.59"
       id="path28" />
    <path
       stroke="#717d9d"
       vector-effect="non-scaling-stroke"
       d="   M 603.51 384.59   C 593.81 376.02 578.87 378.78 575.57 391.73"
       id="path29" />
    <path
       stroke="#e8ecf5"
       vector-effect="non-scaling-stroke"
       d="   M 575.57 391.73   Q 574.86 391.27 573.97 391.75   Q 573.52 391.99 573.05 391.80   C 554.82 384.47 533.72 379.34 514.00 380.45   Q 486.49 382.01 460.84 393.73"
       id="path30" />
    <path
       stroke="#717d9d"
       vector-effect="non-scaling-stroke"
       d="   M 460.84 393.73   C 458.10 379.67 442.55 374.95 432.62 384.87"
       id="path31" />
    <path
       stroke="#e8ecf5"
       vector-effect="non-scaling-stroke"
       d="   M 432.62 384.87   L 405.94 371.20"
       id="path32" />
    <path
       stroke="#e8ecf5"
       vector-effect="non-scaling-stroke"
       d="   M 639.56 429.52   L 637.19 429.63   Q 636.62 429.66 636.45 430.20   Q 634.65 435.84 632.26 439.49   C 578.26 521.78 462.14 527.89 406.68 442.55   Q 402.65 436.35 400.37 431.03   Q 400.20 430.62 399.76 430.70   L 397.76 431.08"
       id="path33" />
    <path
       stroke="#8891a8"
       vector-effect="non-scaling-stroke"
       d="   M 432.62 384.87   C 420.96 399.88 437.16 420.25 453.69 408.90   Q 461.62 403.45 460.84 393.73"
       id="path34" />
    <path
       stroke="#8891a8"
       vector-effect="non-scaling-stroke"
       d="   M 575.57 391.73   C 571.38 408.36 590.00 418.61 602.53 407.08   Q 611.89 398.47 603.51 384.59"
       id="path35" />
    <path
       stroke="#885b83"
       vector-effect="non-scaling-stroke"
       d="   M 284.49 386.98   Q 279.75 388.26 275.11 391.57"
       id="path36" />
    <path
       stroke="#883e74"
       vector-effect="non-scaling-stroke"
       d="   M 275.11 391.57   Q 270.35 394.15 269.26 399.01   C 265.81 414.38 295.79 418.31 305.25 419.02   C 327.99 420.73 350.23 420.06 372.03 413.69   A 0.89 0.89 0.0 0 0 372.67 412.91   L 373.81 398.45"
       id="path37" />
    <path
       stroke="#885b83"
       vector-effect="non-scaling-stroke"
       d="   M 373.81 398.45   L 377.15 380.08"
       id="path38" />
    <path
       stroke="#8891a8"
       vector-effect="non-scaling-stroke"
       d="   M 377.15 380.08   Q 377.55 379.62 377.47 378.99   Q 377.39 378.45 376.85 378.39   C 347.56 375.07 313.03 376.90 284.49 386.98"
       id="path39" />
    <path
       stroke="#ffc9db"
       vector-effect="non-scaling-stroke"
       d="   M 377.15 380.08   Q 370.12 380.99 355.01 384.27   Q 338.95 387.75 320.28 388.16   C 311.03 388.37 298.99 387.30 290.50 386.98   Q 288.08 386.89 285.24 387.80   Q 284.72 387.96 284.59 387.43   L 284.49 386.98"
       id="path40" />
    <path
       stroke="#ff77a7"
       vector-effect="non-scaling-stroke"
       d="   M 373.81 398.45   Q 370.98 398.43 369.49 398.69   C 349.22 402.30 329.51 404.62 309.19 402.10   Q 290.45 399.78 275.11 391.57"
       id="path41" />
    <path
       stroke="#885b83"
       vector-effect="non-scaling-stroke"
       d="   M 659.54 380.00   L 663.00 398.41"
       id="path42" />
    <path
       stroke="#883e74"
       vector-effect="non-scaling-stroke"
       d="   M 663.00 398.41   L 664.04 411.77   A 2.03 2.01 8.9 0 0 665.31 413.50   C 682.14 420.24 702.34 420.60 720.11 419.86   C 733.79 419.29 752.10 418.20 761.72 409.14   C 767.58 403.61 766.54 396.15 760.31 391.15"
       id="path43" />
    <path
       stroke="#885b83"
       vector-effect="non-scaling-stroke"
       d="   M 760.31 391.15   L 754.85 387.44"
       id="path44" />
    <path
       stroke="#8891a8"
       vector-effect="non-scaling-stroke"
       d="   M 754.85 387.44   Q 750.56 385.66 749.00 385.23   Q 704.95 373.39 659.50 378.42   Q 658.95 378.48 659.04 379.03   Q 659.10 379.47 659.54 380.00"
       id="path45" />
    <path
       stroke="#ffc9db"
       vector-effect="non-scaling-stroke"
       d="   M 754.85 387.44   Q 753.29 388.34 751.00 387.75   Q 748.73 387.16 747.37 387.24   C 717.49 389.11 690.08 387.97 661.23 380.00   Q 660.79 379.88 660.33 379.92   L 659.54 380.00"
       id="path46" />
    <path
       stroke="#ff77a7"
       vector-effect="non-scaling-stroke"
       d="   M 760.31 391.15   Q 760.03 392.73 758.95 393.24   C 737.08 403.51 709.16 405.60 685.75 401.76   Q 670.19 399.20 663.00 398.41"
       id="path47" />
    <path
       stroke="#7a86a1"
       vector-effect="non-scaling-stroke"
       d="   M 224.27 486.56   Q 201.54 498.31 196.71 521.78   C 192.58 541.88 202.26 562.30 221.62 569.75   C 226.91 571.78 228.88 574.90 228.86 580.57"
       id="path48" />
    <path
       stroke="#8891a8"
       vector-effect="non-scaling-stroke"
       d="   M 228.86 580.57   C 226.29 588.42 218.78 593.74 213.27 599.34"
       id="path49" />
    <path
       stroke="#7a86a1"
       vector-effect="non-scaling-stroke"
       d="   M 213.27 599.34   C 194.99 622.70 197.07 655.26 223.04 672.00   C 229.20 675.97 238.88 674.67 240.78 683.21"
       id="path50" />
    <path
       stroke="#717d9d"
       vector-effect="non-scaling-stroke"
       d="   M 240.78 683.21   C 240.82 690.32 237.17 697.01 236.40 704.07   C 233.70 728.49 251.70 749.10 275.66 752.42   C 279.24 752.92 283.46 752.69 287.44 753.03   A 1.69 1.63 66.2 0 1 288.37 753.41   Q 292.86 757.19 295.05 762.64   A 0.37 0.36 52.9 0 0 295.67 762.73   Q 301.64 755.09 309.55 749.52   Q 310.04 749.18 309.76 748.65   Q 304.76 739.42 303.42 730.65"
       id="path51" />
    <path
       stroke="#7a86a1"
       vector-effect="non-scaling-stroke"
       d="   M 303.42 730.65   Q 301.47 715.45 314.82 714.60"
       id="path52" />
    <path
       stroke="#8891a8"
       vector-effect="non-scaling-stroke"
       d="   M 314.82 714.60   C 321.88 717.00 322.18 722.05 324.31 727.79   C 326.07 732.53 329.37 736.59 332.35 740.70   Q 332.63 741.07 333.09 741.04   Q 350.48 739.66 365.34 748.60   Q 365.94 748.96 365.77 748.28   Q 353.22 699.78 340.72 651.26   Q 339.79 647.67 339.34 640.78   A 1.16 1.14 -73.6 0 0 338.90 639.96   Q 326.63 630.52 322.51 615.50   C 318.47 600.80 312.20 585.27 315.80 569.76   C 326.64 523.08 387.37 515.92 406.75 561.30   A 0.63 0.62 -18.7 0 0 407.49 561.66   L 463.43 546.00   A 0.34 0.34 0.0 0 0 463.44 545.35   C 414.05 531.10 378.83 489.93 373.30 438.32   Q 373.23 437.71 372.63 437.81   L 363.94 439.22"
       id="path53" />
    <path
       stroke="#7a86a1"
       vector-effect="non-scaling-stroke"
       d="   M 363.94 439.22   Q 335.89 442.94 307.56 441.60   C 287.26 440.65 268.53 436.43 252.43 423.51"
       id="path54" />
    <path
       stroke="#8891a8"
       vector-effect="non-scaling-stroke"
       d="   M 252.43 423.51   Q 242.42 414.34 241.01 401.23   Q 240.95 400.65 240.54 401.06   C 226.48 415.28 224.42 437.21 234.97 454.07   C 237.62 458.31 243.22 464.47 243.82 469.25   C 244.40 473.92 241.86 477.71 237.44 479.62   Q 229.72 482.98 224.27 486.56"
       id="path55" />
    <path
       stroke="#f1f4f8"
       vector-effect="non-scaling-stroke"
       d="   M 252.43 423.51   C 251.74 424.75 251.27 425.75 251.70 427.23   C 264.78 472.35 337.46 470.80 364.03 442.18   A 1.05 1.04 61.9 0 0 364.29 441.31   L 363.94 439.22"
       id="path56" />
    <path
       stroke="#f1f4f8"
       vector-effect="non-scaling-stroke"
       d="   M 314.82 714.60   Q 316.39 712.40 315.65 709.44   Q 315.52 708.92 314.99 709.00   Q 307.63 710.07 305.54 710.18   C 277.39 711.60 253.92 686.36 267.77 658.76   A 0.33 0.33 0.0 0 0 267.36 658.31   C 236.05 669.81 211.50 640.24 211.73 611.16   Q 211.76 606.45 213.78 601.49   Q 214.11 600.68 213.27 599.34"
       id="path57" />
    <path
       stroke="#f1f4f8"
       vector-effect="non-scaling-stroke"
       d="   M 228.86 580.57   Q 232.95 579.16 236.92 577.25   C 241.00 575.28 251.10 573.33 251.89 569.00   Q 252.69 564.58 250.43 561.08   Q 250.13 560.62 249.61 560.46   C 231.79 554.87 219.02 543.63 215.79 525.01   Q 212.55 506.34 224.27 486.56"
       id="path58" />
    <path
       stroke="#dae1ee"
       vector-effect="non-scaling-stroke"
       d="   M 303.42 730.65   Q 300.18 730.79 296.97 731.01   C 278.57 732.30 259.74 720.37 253.05 703.28   C 250.70 697.28 250.93 689.84 250.70 683.47   A 0.95 0.95 0.0 0 0 249.67 682.55   L 240.78 683.21"
       id="path59" />
    <path
       stroke="#7a86a1"
       vector-effect="non-scaling-stroke"
       d="   M 772.51 429.32   Q 764.00 434.59 755.58 437.29   A 0.48 0.47 59.0 0 0 755.39 438.07   L 763.68 446.62"
       id="path60" />
    <path
       stroke="#8891a8"
       vector-effect="non-scaling-stroke"
       d="   M 763.68 446.62   Q 768.35 452.81 771.13 461.01   Q 771.29 461.49 771.79 461.40   C 777.97 460.21 784.93 459.39 788.81 453.82   C 798.50 439.90 799.30 421.58 789.71 407.13   Q 789.34 406.57 789.19 407.22   Q 787.58 414.12 783.65 418.89   Q 778.79 424.81 772.51 429.32"
       id="path61" />
    <path
       stroke="#f1f4f8"
       vector-effect="non-scaling-stroke"
       d="   M 763.68 446.62   Q 770.89 439.39 772.51 429.32"
       id="path62" />
    <path
       stroke="#8891a8"
       vector-effect="non-scaling-stroke"
       d="   M 693.04 442.33   A 0.15 0.15 0.0 0 0 692.93 442.08   Q 678.17 441.30 663.80 437.87   A 0.21 0.21 0.0 0 0 663.54 438.05   Q 660.20 470.65 640.86 496.96   A 0.23 0.22 10.9 0 0 641.10 497.31   L 678.97 487.18   A 1.00 0.99 -13.0 0 0 679.70 486.03   C 676.43 468.94 682.01 455.24 693.04 442.33"
       id="path63" />
    <path
       stroke="#885b83"
       vector-effect="non-scaling-stroke"
       d="   M 703.57 467.62   C 699.61 476.73 702.35 487.38 704.62 495.97"
       id="path64" />
    <path
       stroke="#883e74"
       vector-effect="non-scaling-stroke"
       d="   M 704.62 495.97   C 706.01 503.29 708.30 512.37 713.67 517.40   Q 720.67 523.95 730.50 521.50   Q 732.69 520.95 732.18 518.76   L 728.39 502.35"
       id="path65" />
    <path
       stroke="#885b83"
       vector-effect="non-scaling-stroke"
       d="   M 728.39 502.35   L 735.77 500.73"
       id="path66" />
    <path
       stroke="#883e74"
       vector-effect="non-scaling-stroke"
       d="   M 735.77 500.73   Q 738.94 508.32 741.11 517.68   Q 741.50 519.34 743.10 518.74   Q 760.90 512.05 755.96 491.98   Q 753.20 480.74 751.31 475.58"
       id="path67" />
    <path
       stroke="#885b83"
       vector-effect="non-scaling-stroke"
       d="   M 751.31 475.58   Q 749.40 466.16 744.87 459.93"
       id="path68" />
    <path
       stroke="#8891a8"
       vector-effect="non-scaling-stroke"
       d="   M 744.87 459.93   C 732.96 441.82 708.50 447.52 703.57 467.62"
       id="path69" />
    <path
       stroke="#ffc9db"
       vector-effect="non-scaling-stroke"
       d="   M 744.87 459.93   Q 744.48 461.15 742.78 459.56   C 739.54 456.52 727.56 455.63 724.48 455.96   Q 715.27 456.94 708.54 465.56   Q 707.38 467.04 703.57 467.62"
       id="path70" />
    <path
       stroke="#ff77a7"
       vector-effect="non-scaling-stroke"
       d="   M 751.31 475.58   Q 747.03 470.29 743.01 466.75   Q 742.49 466.28 741.92 466.56   A 0.37 0.37 0.0 0 0 741.85 467.18   C 753.43 477.07 744.92 493.24 735.77 500.73"
       id="path71" />
    <path
       stroke="#ff77a7"
       vector-effect="non-scaling-stroke"
       d="   M 728.39 502.35   Q 710.35 499.61 704.73 481.87   Q 704.49 481.11 704.36 481.89   C 703.73 485.71 705.01 490.61 706.03 494.01   Q 706.48 495.50 704.62 495.97"
       id="path72" />
    <path
       stroke="#0960a8"
       vector-effect="non-scaling-stroke"
       d="   M 778.61 492.76   C 778.09 542.95 713.78 561.70 688.88 517.24"
       id="path73" />
    <path
       stroke="#3981a8"
       vector-effect="non-scaling-stroke"
       d="   M 688.88 517.24   L 685.33 507.91   A 1.19 1.18 72.3 0 0 683.93 507.18   Q 547.95 542.81 412.73 581.22   Q 412.18 581.37 412.30 581.93   L 414.46 591.77"
       id="path74" />
    <path
       stroke="#0960a8"
       vector-effect="non-scaling-stroke"
       d="   M 414.46 591.77   Q 417.37 608.54 409.24 622.97   C 399.38 640.47 383.86 647.82 363.94 648.74   Q 363.01 648.79 363.25 649.69   Q 377.17 703.77 390.24 754.00   C 392.50 762.69 397.30 773.08 407.06 774.02   Q 410.34 774.34 419.80 771.91   Q 568.97 733.60 718.08 695.03   C 780.91 678.77 843.92 663.18 906.76 646.96   Q 915.91 644.60 919.49 636.01   Q 922.53 628.69 920.69 621.81   Q 901.76 551.30 883.06 480.74   Q 881.16 473.59 876.06 467.96"
       id="path75" />
    <path
       stroke="#3981a8"
       vector-effect="non-scaling-stroke"
       d="   M 876.06 467.96   Q 867.32 457.95 854.82 461.11   Q 818.88 470.19 776.99 481.86   Q 776.51 481.99 776.61 482.49   L 778.61 492.76"
       id="path76" />
    <path
       stroke="#31bfff"
       vector-effect="non-scaling-stroke"
       d="   M 876.06 467.96   C 869.16 469.65 861.94 470.00 855.46 471.78   C 829.95 478.78 803.80 484.77 778.61 492.76"
       id="path77" />
    <path
       stroke="#31bfff"
       vector-effect="non-scaling-stroke"
       d="   M 414.46 591.77   Q 551.34 553.29 688.88 517.24"
       id="path78" />
    <path
       stroke="#885b83"
       vector-effect="non-scaling-stroke"
       d="   M 338.45 573.74   C 336.33 581.48 338.42 588.84 340.74 597.00"
       id="path79" />
    <path
       stroke="#883e74"
       vector-effect="non-scaling-stroke"
       d="   M 340.74 597.00   C 344.58 613.50 348.27 630.57 368.23 627.15   A 1.12 1.12 0.0 0 0 369.13 625.81   L 365.11 607.40"
       id="path80" />
    <path
       stroke="#885b83"
       vector-effect="non-scaling-stroke"
       d="   M 365.11 607.40   Q 368.05 605.50 372.56 605.20"
       id="path81" />
    <path
       stroke="#883e74"
       vector-effect="non-scaling-stroke"
       d="   M 372.56 605.20   Q 376.11 613.69 378.47 623.09   A 1.37 1.36 -18.2 0 0 380.32 624.02   C 389.70 620.16 396.27 609.73 394.04 599.49   Q 392.43 592.10 388.90 581.02"
       id="path82" />
    <path
       stroke="#885b83"
       vector-effect="non-scaling-stroke"
       d="   M 388.90 581.02   Q 386.70 570.49 381.08 562.85"
       id="path83" />
    <path
       stroke="#8891a8"
       vector-effect="non-scaling-stroke"
       d="   M 381.08 562.85   C 367.50 545.51 341.92 552.27 338.45 573.74"
       id="path84" />
    <path
       stroke="#ffc9db"
       vector-effect="non-scaling-stroke"
       d="   M 381.08 562.85   Q 376.01 561.53 371.22 560.49   C 358.62 557.75 347.98 561.69 341.91 573.59   Q 341.68 574.03 341.19 573.98   L 338.45 573.74"
       id="path85" />
    <path
       stroke="#ff77a7"
       vector-effect="non-scaling-stroke"
       d="   M 388.90 581.02   Q 387.07 580.41 385.13 581.57   Q 384.69 581.83 384.72 582.34   C 385.34 590.74 382.28 596.56 376.00 601.67   Q 373.85 603.42 372.56 605.20"
       id="path86" />
    <path
       stroke="#ff77a7"
       vector-effect="non-scaling-stroke"
       d="   M 365.11 607.40   Q 362.00 606.08 358.59 604.72   C 349.32 601.04 343.64 595.36 341.46 585.17   A 0.51 0.51 0.0 0 0 340.46 585.35   L 342.20 596.98   A 0.62 0.57 28.8 0 1 341.06 597.25   Q 340.98 597.11 340.74 597.00"
       id="path87" />
    <path
       stroke="#7a86a1"
       vector-effect="non-scaling-stroke"
       d="   M 811.03 693.39   L 775.40 702.51   A 0.54 0.53 80.2 0 0 775.00 703.09   Q 776.07 713.31 773.50 723.20"
       id="path88" />
    <path
       stroke="#717d9d"
       vector-effect="non-scaling-stroke"
       d="   M 773.50 723.20   Q 770.53 733.17 764.92 742.01   Q 764.63 742.46 765.12 742.69   Q 773.02 746.45 779.40 752.45   Q 779.86 752.88 780.11 752.30   C 780.92 750.39 783.89 744.46 786.25 744.51   C 816.13 745.15 834.49 718.59 827.63 690.30   Q 827.40 689.35 826.45 689.58   L 811.03 693.39"
       id="path89" />
    <path
       stroke="#dae1ee"
       vector-effect="non-scaling-stroke"
       d="   M 773.50 723.20   C 775.88 723.29 778.63 722.75 780.44 722.56   Q 798.03 720.78 806.71 706.00   C 808.93 702.21 809.90 697.79 811.03 693.39"
       id="path90" />
    <path
       stroke="#8891a8"
       vector-effect="non-scaling-stroke"
       d="   M 703.43 720.89   L 489.23 775.98"
       id="path91" />
    <path
       stroke="#7a86a1"
       vector-effect="non-scaling-stroke"
       d="   M 489.23 775.98   L 419.93 793.72"
       id="path92" />
    <path
       stroke="#30406f"
       vector-effect="non-scaling-stroke"
       d="   M 419.93 793.72   Q 403.62 797.77 388.96 789.38   Q 388.43 789.07 388.44 789.68   Q 388.66 799.04 387.13 808.27   Q 386.80 810.25 388.72 811.79   C 400.63 821.39 413.86 821.67 428.34 820.84   A 0.46 0.45 -18.6 0 0 428.70 820.13   Q 421.53 809.26 432.47 801.49"
       id="path93" />
    <path
       stroke="#7a86a1"
       vector-effect="non-scaling-stroke"
       d="   M 432.47 801.49   C 447.22 806.61 461.71 807.71 474.78 797.80   C 476.98 796.13 477.13 792.21 478.29 790.07   C 481.79 783.59 490.71 783.01 495.18 789.06   Q 495.98 790.15 497.08 793.62   C 504.50 817.10 544.41 820.88 556.51 799.37   C 560.34 792.56 557.73 784.21 567.90 782.80   C 573.32 782.04 577.80 785.23 579.03 790.53   C 579.45 792.35 578.68 795.85 580.21 797.52   C 587.48 805.47 601.98 807.25 612.24 805.11   Q 633.68 800.64 638.59 779.46"
       id="path94" />
    <path
       stroke="#8891a8"
       vector-effect="non-scaling-stroke"
       d="   M 638.59 779.46   Q 640.17 773.86 647.32 772.17"
       id="path95" />
    <path
       stroke="#7a86a1"
       vector-effect="non-scaling-stroke"
       d="   M 647.32 772.17   C 664.20 773.42 656.73 793.41 653.99 802.37"
       id="path96" />
    <path
       stroke="#30406f"
       vector-effect="non-scaling-stroke"
       d="   M 653.99 802.37   C 650.60 808.27 648.25 814.56 644.44 820.17   Q 643.82 821.08 644.93 821.10   C 663.91 821.38 680.37 822.17 695.96 809.77   Q 696.36 809.45 696.29 808.94   L 694.15 794.24"
       id="path97" />
    <path
       stroke="#7a86a1"
       vector-effect="non-scaling-stroke"
       d="   M 694.15 794.24   C 695.81 785.53 696.41 779.17 700.66 769.60"
       id="path98" />
    <path
       stroke="#8891a8"
       vector-effect="non-scaling-stroke"
       d="   M 700.66 769.60   L 707.99 758.38"
       id="path99" />
    <path
       stroke="#7a86a1"
       vector-effect="non-scaling-stroke"
       d="   M 707.99 758.38   C 717.75 748.19 726.69 743.84 740.08 740.74   A 1.35 1.33 10.3 0 0 740.87 740.20   C 747.95 729.76 753.17 721.46 754.30 708.44   A 0.65 0.64 85.0 0 0 753.49 707.76   L 703.43 720.89"
       id="path100" />
    <path
       stroke="#f1f4f8"
       vector-effect="non-scaling-stroke"
       d="   M 707.99 758.38   Q 711.30 743.78 707.42 731.02   C 706.62 728.40 704.99 726.01 703.47 723.69   A 1.13 1.10 -60.2 0 1 703.30 723.03   L 703.43 720.89"
       id="path101" />
    <path
       stroke="#f1f4f8"
       vector-effect="non-scaling-stroke"
       d="   M 700.66 769.60   Q 698.63 768.40 697.46 768.97   Q 677.40 778.71 658.70 767.71   C 654.19 765.06 649.34 767.88 647.32 772.17"
       id="path102" />
    <path
       stroke="#f1f4f8"
       vector-effect="non-scaling-stroke"
       d="   M 638.59 779.46   Q 632.98 781.15 628.14 784.37   C 615.78 792.58 598.70 791.26 586.37 784.69   C 579.88 781.22 573.40 775.06 567.44 769.80   Q 566.79 769.23 566.16 769.82   Q 562.78 773.02 558.91 776.38   C 537.20 795.24 512.45 791.83 489.52 776.96   Q 489.18 776.74 489.23 775.98"
       id="path103" />
    <path
       stroke="#99a3bf"
       vector-effect="non-scaling-stroke"
       d="   M 432.47 801.49   Q 425.51 798.43 419.93 793.72"
       id="path104" />
    <path
       stroke="#99a3bf"
       vector-effect="non-scaling-stroke"
       d="   M 694.15 794.24   C 681.64 803.73 669.54 807.35 653.99 802.37"
       id="path105" />
    <path
       stroke="#883e74"
       vector-effect="non-scaling-stroke"
       d="   M 326.22 819.82   Q 336.35 824.35 347.25 821.81   C 373.33 815.74 373.74 784.09 355.24 769.49"
       id="path106" />
    <path
       stroke="#885b83"
       vector-effect="non-scaling-stroke"
       d="   M 355.24 769.49   Q 349.55 764.24 340.49 763.53   C 305.46 760.79 297.22 806.09 326.22 819.82"
       id="path107" />
    <path
       stroke="#ff77a7"
       vector-effect="non-scaling-stroke"
       d="   M 355.24 769.49   Q 365.26 785.46 356.90 797.41   C 348.10 809.99 321.55 812.99 312.35 799.30   A 0.41 0.41 0.0 0 0 311.63 799.67   C 313.55 804.82 315.49 807.92 319.85 811.96   Q 323.58 815.42 326.22 819.82"
       id="path108" />
    <path
       stroke="#883e74"
       vector-effect="non-scaling-stroke"
       d="   M 726.22 771.77   C 703.96 790.49 718.83 826.38 748.42 822.40   Q 767.86 819.78 774.00 800.52"
       id="path109" />
    <path
       stroke="#885b83"
       vector-effect="non-scaling-stroke"
       d="   M 774.00 800.52   C 780.69 771.26 748.94 750.83 726.22 771.77"
       id="path110" />
    <path
       stroke="#ff77a7"
       vector-effect="non-scaling-stroke"
       d="   M 774.00 800.52   C 773.10 799.78 771.66 800.20 770.85 801.08   C 755.87 817.17 715.50 804.77 723.82 779.27   Q 725.04 775.53 726.22 771.77"
       id="path111" />
    <path
       stroke="#8891a8"
       vector-effect="non-scaling-stroke"
       d="   M 518.71 483.59   Q 525.22 489.67 533.00 489.26   C 541.68 488.81 554.60 482.10 558.07 473.07   C 560.07 467.86 558.23 461.26 552.53 459.59   C 542.76 456.72 540.69 472.29 532.76 469.52   C 525.77 467.09 526.65 455.81 527.32 450.05   C 528.21 442.49 544.80 437.70 541.51 428.28   Q 538.23 418.90 529.11 420.00   C 526.05 420.37 522.43 422.40 519.12 423.46   A 1.30 1.28 47.0 0 1 518.19 423.42   C 514.37 421.80 509.90 419.72 505.98 419.90   C 496.90 420.34 490.98 430.68 498.39 437.61   Q 504.26 443.10 508.31 447.31   C 511.23 450.36 510.97 463.56 508.46 466.85   C 501.35 476.15 495.11 460.86 488.86 459.40   C 483.23 458.08 478.12 463.72 478.10 469.03   C 478.07 478.69 489.63 486.16 498.03 488.25   Q 509.47 491.09 517.89 483.58   Q 518.31 483.21 518.71 483.59"
       id="path112" />
    <path
       stroke="#ffc9db"
       vector-effect="non-scaling-stroke"
       d="   M 720.19 391.56   Q 723.10 390.68 725.69 391.67   A 0.77 0.77 0.0 0 0 726.69 391.21   Q 727.02 390.33 726.51 389.86   Q 726.16 389.53 725.42 389.60   Q 722.69 389.87 720.04 390.46   A 0.57 0.57 0.0 0 0 719.60 391.08   Q 719.67 391.72 720.19 391.56"
       id="path113" />
    <path
       stroke="#ffc9db"
       vector-effect="non-scaling-stroke"
       d="   M 313.87 390.12   L 310.95 389.68   A 0.21 0.21 0.0 0 0 310.71 389.85   L 310.69 389.94   A 1.55 1.54 8.7 0 0 311.99 391.70   L 312.27 391.74   A 1.55 1.54 8.7 0 0 314.03 390.45   L 314.05 390.36   A 0.21 0.21 0.0 0 0 313.87 390.12"
       id="path114" />
    <path
       stroke="#ffc9db"
       vector-effect="non-scaling-stroke"
       d="   M 734.2647 466.4070   A 8.68 6.92 -8.5 0 0 724.6572 460.8460   A 8.68 6.92 -8.5 0 0 717.0953 468.9730   A 8.68 6.92 -8.5 0 0 726.7028 474.5340   A 8.68 6.92 -8.5 0 0 734.2647 466.4070"
       id="path115" />
    <path
       stroke="#ffc9db"
       vector-effect="non-scaling-stroke"
       d="   M 714.29 474.77   Q 715.67 475.56 716.47 475.20   Q 717.13 474.91 717.23 473.72   Q 717.41 471.69 716.39 469.71   A 0.58 0.57 42.6 0 0 715.35 469.75   L 713.83 473.42   Q 713.46 474.30 714.29 474.77"
       id="path116" />
    <path
       stroke="#80cfff"
       vector-effect="non-scaling-stroke"
       d="   M 831.34 589.92   L 829.24 581.23   A 0.68 0.66 -14.8 0 1 829.72 580.43   Q 840.32 577.39 850.96 574.53   C 865.24 570.69 859.66 553.14 845.60 556.94   Q 835.07 559.78 824.55 562.79   A 0.61 0.60 -15.8 0 1 823.79 562.37   L 821.41 553.85   A 0.77 0.77 0.0 0 1 821.98 552.89   Q 834.15 550.17 846.30 546.97   C 858.93 543.63 852.88 525.33 838.41 529.37   Q 824.39 533.28 810.25 537.04   C 802.33 539.15 797.21 542.56 799.72 551.52   Q 807.08 577.75 814.16 604.08   C 816.05 611.07 822.56 612.67 828.99 610.79   Q 844.99 606.12 861.09 601.86   C 875.89 597.94 869.16 580.09 857.99 583.44   Q 845.18 587.29 832.17 590.43   Q 831.50 590.59 831.34 589.92"
       id="path117" />
    <path
       stroke="#80cfff"
       vector-effect="non-scaling-stroke"
       d="   M 754.54 618.81   C 757.31 629.20 762.86 628.86 771.85 626.28   Q 785.64 622.33 799.44 618.43   Q 804.88 616.89 806.86 614.85   C 811.50 610.07 808.59 599.88 801.65 599.19   Q 799.10 598.93 793.03 600.78   Q 783.17 603.78 773.36 606.70   A 0.80 0.80 0.0 0 1 772.36 606.15   Q 766.75 585.55 761.28 564.76   C 759.97 559.79 758.42 555.84 753.72 554.32   C 746.57 552.00 738.04 558.16 740.21 566.01   Q 747.49 592.38 754.54 618.81"
       id="path118" />
    <path
       stroke="#80cfff"
       vector-effect="non-scaling-stroke"
       d="   M 697.65 631.93   L 724.00 624.96   A 0.91 0.90 61.5 0 1 724.90 625.23   C 728.86 629.74 733.27 636.59 740.18 635.77   C 746.17 635.06 753.33 627.26 748.20 621.55   Q 726.01 596.83 704.47 571.54   C 699.31 565.48 687.46 566.26 685.96 575.25   Q 680.70 606.74 675.68 638.28   C 674.40 646.31 680.53 651.33 688.07 649.18   C 696.26 646.84 695.75 638.67 696.95 632.67   A 0.96 0.96 0.0 0 1 697.65 631.93"
       id="path119" />
    <path
       stroke="#80cfff"
       vector-effect="non-scaling-stroke"
       d="   M 600.88 608.27   C 599.89 618.96 607.19 629.10 618.26 630.74   Q 629.61 632.41 642.06 631.95   C 645.60 631.82 649.07 634.45 647.41 638.17   C 645.50 642.43 636.97 643.66 632.99 643.42   C 624.92 642.93 619.43 637.79 613.37 647.11   C 610.84 651.00 610.43 654.25 614.61 657.17   C 632.99 670.03 672.35 658.28 666.60 630.45   C 662.19 609.08 640.47 613.48 624.70 612.60   C 619.24 612.29 620.05 607.00 623.74 605.30   Q 628.00 603.34 632.66 603.43   C 637.19 603.51 641.71 606.59 646.07 604.72   Q 650.41 602.87 652.54 598.24   C 656.05 590.61 644.15 585.88 638.26 585.20   C 623.06 583.43 602.56 590.21 600.88 608.27"
       id="path120" />
    <path
       stroke="#80cfff"
       vector-effect="non-scaling-stroke"
       d="   M 526.05 653.75   Q 542.39 664.95 558.05 677.06   C 567.30 684.21 579.45 679.56 575.73 666.76   Q 568.59 642.20 561.97 617.49   C 559.78 609.31 553.03 603.38 544.65 608.87   C 539.58 612.19 540.07 617.21 541.78 622.78   Q 545.37 634.53 548.19 646.41   A 0.22 0.21 11.8 0 1 547.85 646.63   Q 530.96 634.27 514.36 622.03   C 508.60 617.79 501.58 617.13 497.39 623.93   Q 495.19 627.52 496.43 631.77   Q 503.72 656.63 510.50 681.62   Q 511.84 686.53 513.79 688.68   C 518.75 694.14 529.81 693.89 532.14 685.77   Q 532.88 683.21 531.51 678.34   C 529.24 670.31 526.75 662.68 525.58 654.04   Q 525.49 653.37 526.05 653.75"
       id="path121" />
    <path
       stroke="#80cfff"
       vector-effect="non-scaling-stroke"
       d="   M 434.53 641.79   C 401.09 672.26 439.63 726.41 480.37 702.21   C 507.66 685.99 498.80 644.99 471.46 634.89   C 459.46 630.45 443.82 633.32 434.53 641.79"
       id="path122" />
    <path
       stroke="#ffc9db"
       vector-effect="non-scaling-stroke"
       d="   M 352.72 575.99   C 363.44 586.28 375.99 569.93 365.98 565.89   C 359.10 563.11 352.69 565.87 351.74 573.05   C 351.49 575.01 349.97 578.24 352.06 580.36   Q 352.44 580.74 352.96 580.64   L 353.73 580.50   A 0.40 0.39 -22.2 0 0 353.99 579.89   L 351.87 576.71   A 0.56 0.56 0.0 0 1 352.72 575.99"
       id="path123" />
    <path
       stroke="#80cfff"
       vector-effect="non-scaling-stroke"
       d="   M 699.41 612.43   A 0.48 0.48 0.0 0 0 700.01 612.95   L 711.43 609.80   A 0.48 0.48 0.0 0 0 711.69 609.05   L 701.92 595.89   A 0.48 0.48 0.0 0 0 701.06 596.13   L 699.41 612.43"
       id="path124" />
    <path
       stroke="#80cfff"
       vector-effect="non-scaling-stroke"
       d="   M 466.4300 687.5325   A 18.34 17.30 67.9 0 0 475.5589 664.0313   A 18.34 17.30 67.9 0 0 452.6300 653.5475   A 18.34 17.30 67.9 0 0 443.5011 677.0487   A 18.34 17.30 67.9 0 0 466.4300 687.5325"
       id="path125" />
    <path
       stroke="#ffc9db"
       vector-effect="non-scaling-stroke"
       d="   M 330.35 787.48   A 6.89 6.89 0.0 0 0 323.46 780.59   A 6.89 6.89 0.0 0 0 316.57 787.48   A 6.89 6.89 0.0 0 0 323.46 794.37   A 6.89 6.89 0.0 0 0 330.35 787.48"
       id="path126" />
    <path
       stroke="#ffc9db"
       vector-effect="non-scaling-stroke"
       d="   M 767.6763 786.7801   A 7.37 6.85 -3.5 0 0 759.9018 780.3928   A 7.37 6.85 -3.5 0 0 752.9637 787.6799   A 7.37 6.85 -3.5 0 0 760.7382 794.0672   A 7.37 6.85 -3.5 0 0 767.6763 786.7801"
       id="path127" />
  </g>
  <path
     fill="#112250"
     d="   M 802.92 845.49   L 263.17 845.50   Q 229.26 845.49 195.70 845.52   Q 189.88 845.52 187.39 844.58   C 175.29 840.01 179.43 822.30 192.57 822.28   Q 245.26 822.22 297.54 822.26   A 0.59 0.59 0.0 0 0 298.00 821.30   Q 287.19 808.00 286.66 790.68   Q 286.64 790.07 286.04 790.12   C 275.61 790.96 265.29 789.39 261.97 778.15   Q 261.82 777.67 261.33 777.55   C 225.38 768.56 201.99 735.70 211.04 699.04   A 0.74 0.73 22.2 0 0 210.69 698.23   C 169.13 674.15 160.76 621.96 190.96 585.33   A 0.10 0.09 -47.4 0 0 190.96 585.20   C 153.95 549.30 162.42 489.88 207.54 465.32   Q 208.03 465.05 207.83 464.52   C 205.96 459.59 203.57 454.43 202.46 449.69   C 192.01 404.99 222.97 366.78 267.58 362.81   Q 272.92 362.34 278.26 361.96   Q 278.75 361.92 278.59 361.46   C 269.55 334.81 277.80 312.30 299.09 295.02   A 0.91 0.90 -24.3 0 0 299.41 294.18   C 294.00 261.31 316.74 233.30 348.95 228.35   C 351.39 227.98 354.85 228.06 357.80 227.69   Q 358.35 227.62 358.69 227.19   Q 377.42 203.79 407.91 205.28   Q 408.50 205.31 408.80 204.80   Q 413.84 196.23 416.13 193.13   Q 439.16 162.01 476.56 158.57   C 498.03 156.59 523.94 164.56 538.86 181.79   Q 539.23 182.22 539.66 181.86   C 551.75 171.72 565.81 165.37 581.63 163.72   C 624.31 159.26 659.57 187.08 672.72 226.82   A 0.66 0.65 -13.1 0 0 673.44 227.26   C 712.70 221.41 746.66 251.97 740.99 292.45   A 0.86 0.84 21.6 0 0 741.35 293.26   C 758.34 305.21 768.63 320.45 768.48 341.75   Q 768.41 351.57 763.84 361.04   Q 763.57 361.60 764.18 361.73   C 768.83 362.71 773.74 363.80 777.88 365.27   C 812.39 377.45 830.78 411.98 822.31 447.51   A 0.32 0.32 0.0 0 0 822.70 447.89   Q 836.69 444.13 850.81 440.32   C 874.25 434.01 896.83 450.86 903.53 473.00   Q 907.34 485.62 910.68 498.41   Q 925.99 557.16 941.59 615.83   C 946.71 635.08 937.10 655.16 920.20 664.38   Q 914.93 667.26 901.32 670.72   Q 877.16 676.87 853.13 682.87   Q 852.32 683.08 852.55 683.88   C 862.01 717.56 850.16 754.05 814.82 765.19   A 0.79 0.79 0.0 0 0 814.27 765.93   C 814.16 776.72 804.30 778.98 795.65 778.46   A 0.52 0.51 86.4 0 0 795.12 779.07   C 798.09 795.12 794.94 809.30 784.90 820.99   Q 783.84 822.23 785.47 822.23   Q 824.20 822.26 861.98 822.25   Q 868.07 822.25 870.83 823.44   C 882.43 828.44 878.00 845.47 865.69 845.48   Q 834.40 845.52 802.92 845.49   Z   M 333.52 266.61   Q 325.34 276.25 325.90 289.34   C 326.00 291.79 327.45 293.29 328.79 295.19   Q 333.33 301.63 330.78 309.12   C 328.32 316.35 320.96 315.62 315.28 319.16   Q 303.81 326.31 302.98 340.40   C 302.72 344.85 307.58 351.23 309.80 355.03   Q 310.06 355.47 310.57 355.42   L 321.62 354.27   L 334.60 353.73   A 0.62 0.62 0.0 0 0 335.19 353.18   C 336.29 343.79 347.82 340.45 353.61 348.05   C 354.81 349.62 355.38 351.50 355.97 353.44   Q 356.12 353.95 356.65 353.98   Q 370.29 354.68 383.77 356.99   Q 384.34 357.09 384.61 356.58   L 393.51 340.01   Q 393.82 339.43 393.17 339.51   C 386.68 340.30 377.91 337.91 375.55 331.32   Q 373.91 326.74 378.29 322.40   Q 381.99 322.35 386.06 322.28   C 394.20 322.15 404.04 319.81 407.49 311.40   Q 410.19 306.39 415.77 305.99   C 419.86 306.22 422.14 308.18 424.31 311.87   C 439.39 337.50 472.03 345.99 499.19 336.67   Q 507.16 333.94 513.39 327.46   Q 513.75 327.09 513.76 326.58   L 514.03 318.10   Q 515.42 311.79 521.27 309.15   C 523.20 308.28 526.75 307.91 528.49 308.80   Q 536.27 312.76 536.39 321.27   C 535.98 324.68 535.54 327.96 538.29 330.41   Q 542.91 334.53 548.06 336.48   C 572.48 345.74 600.25 337.68 618.17 319.21   C 622.13 315.13 623.90 310.13 628.98 306.43   Q 637.85 304.39 641.60 314.14   Q 642.15 316.16 644.05 317.38   C 649.46 320.84 656.80 323.13 663.03 320.63   Q 666.90 319.08 671.19 317.84   Q 675.49 323.87 672.21 329.41   C 666.68 338.76 650.54 339.46 641.32 336.90   Q 640.90 336.78 641.11 337.16   L 652.33 357.09   Q 652.57 357.53 653.05 357.43   Q 666.46 354.65 680.15 354.26   Q 680.71 354.24 680.88 353.70   C 681.63 351.33 682.44 349.42 684.09 347.66   C 690.28 341.10 701.88 343.39 702.72 353.21   Q 702.76 353.70 703.25 353.71   L 717.23 354.19   L 732.98 355.95   Q 733.48 356.00 733.73 355.57   Q 736.66 350.57 739.20 345.29   C 744.78 333.69 732.30 318.29 721.16 315.74   C 712.74 313.82 709.30 306.70 711.55 298.41   C 712.45 295.11 714.47 293.30 714.52 289.71   Q 714.61 281.64 711.59 274.17   C 704.56 258.63 687.97 251.54 671.99 254.27   C 660.46 256.23 653.70 257.44 650.25 244.04   C 641.13 208.62 607.41 180.38 569.50 194.60   Q 555.31 199.92 546.93 213.68   C 543.14 219.92 533.00 221.06 529.33 213.92   Q 519.34 194.43 500.22 188.19   C 469.42 178.15 437.03 195.22 427.24 225.62   C 426.19 228.88 425.32 233.31 423.05 235.67   C 416.73 242.29 409.92 238.80 403.94 233.86   A 1.39 1.36 -25.5 0 0 403.04 233.55   C 387.25 233.83 379.74 242.23 372.37 254.96   Q 370.96 257.39 368.00 256.85   C 354.72 254.41 342.99 256.23 333.52 266.61   Z   M 405.94 371.20   Q 394.74 399.88 397.76 431.08   C 400.91 464.54 418.08 492.13 446.63 509.22   C 472.51 524.71 504.66 531.96 534.69 525.19   Q 556.78 520.21 578.23 512.92   C 614.31 500.66 636.84 467.02 639.56 429.52   Q 642.19 398.31 629.83 370.43   Q 625.14 359.72 618.19 350.56   A 0.65 0.65 0.0 0 0 617.31 350.41   C 589.74 368.73 550.65 371.81 523.47 350.27   A 0.67 0.66 44.6 0 0 522.64 350.27   C 507.82 362.17 488.22 366.26 469.59 365.15   Q 441.88 363.50 421.24 345.57   Q 420.88 345.25 420.59 345.64   Q 411.76 357.70 405.94 371.20   Z   M 284.49 386.98   Q 279.75 388.26 275.11 391.57   Q 270.35 394.15 269.26 399.01   C 265.81 414.38 295.79 418.31 305.25 419.02   C 327.99 420.73 350.23 420.06 372.03 413.69   A 0.89 0.89 0.0 0 0 372.67 412.91   L 373.81 398.45   L 377.15 380.08   Q 377.55 379.62 377.47 378.99   Q 377.39 378.45 376.85 378.39   C 347.56 375.07 313.03 376.90 284.49 386.98   Z   M 659.54 380.00   L 663.00 398.41   L 664.04 411.77   A 2.03 2.01 8.9 0 0 665.31 413.50   C 682.14 420.24 702.34 420.60 720.11 419.86   C 733.79 419.29 752.10 418.20 761.72 409.14   C 767.58 403.61 766.54 396.15 760.31 391.15   L 754.85 387.44   Q 750.56 385.66 749.00 385.23   Q 704.95 373.39 659.50 378.42   Q 658.95 378.48 659.04 379.03   Q 659.10 379.47 659.54 380.00   Z   M 224.27 486.56   Q 201.54 498.31 196.71 521.78   C 192.58 541.88 202.26 562.30 221.62 569.75   C 226.91 571.78 228.88 574.90 228.86 580.57   C 226.29 588.42 218.78 593.74 213.27 599.34   C 194.99 622.70 197.07 655.26 223.04 672.00   C 229.20 675.97 238.88 674.67 240.78 683.21   C 240.82 690.32 237.17 697.01 236.40 704.07   C 233.70 728.49 251.70 749.10 275.66 752.42   C 279.24 752.92 283.46 752.69 287.44 753.03   A 1.69 1.63 66.2 0 1 288.37 753.41   Q 292.86 757.19 295.05 762.64   A 0.37 0.36 52.9 0 0 295.67 762.73   Q 301.64 755.09 309.55 749.52   Q 310.04 749.18 309.76 748.65   Q 304.76 739.42 303.42 730.65   Q 301.47 715.45 314.82 714.60   C 321.88 717.00 322.18 722.05 324.31 727.79   C 326.07 732.53 329.37 736.59 332.35 740.70   Q 332.63 741.07 333.09 741.04   Q 350.48 739.66 365.34 748.60   Q 365.94 748.96 365.77 748.28   Q 353.22 699.78 340.72 651.26   Q 339.79 647.67 339.34 640.78   A 1.16 1.14 -73.6 0 0 338.90 639.96   Q 326.63 630.52 322.51 615.50   C 318.47 600.80 312.20 585.27 315.80 569.76   C 326.64 523.08 387.37 515.92 406.75 561.30   A 0.63 0.62 -18.7 0 0 407.49 561.66   L 463.43 546.00   A 0.34 0.34 0.0 0 0 463.44 545.35   C 414.05 531.10 378.83 489.93 373.30 438.32   Q 373.23 437.71 372.63 437.81   L 363.94 439.22   Q 335.89 442.94 307.56 441.60   C 287.26 440.65 268.53 436.43 252.43 423.51   Q 242.42 414.34 241.01 401.23   Q 240.95 400.65 240.54 401.06   C 226.48 415.28 224.42 437.21 234.97 454.07   C 237.62 458.31 243.22 464.47 243.82 469.25   C 244.40 473.92 241.86 477.71 237.44 479.62   Q 229.72 482.98 224.27 486.56   Z   M 772.51 429.32   Q 764.00 434.59 755.58 437.29   A 0.48 0.47 59.0 0 0 755.39 438.07   L 763.68 446.62   Q 768.35 452.81 771.13 461.01   Q 771.29 461.49 771.79 461.40   C 777.97 460.21 784.93 459.39 788.81 453.82   C 798.50 439.90 799.30 421.58 789.71 407.13   Q 789.34 406.57 789.19 407.22   Q 787.58 414.12 783.65 418.89   Q 778.79 424.81 772.51 429.32   Z   M 693.04 442.33   A 0.15 0.15 0.0 0 0 692.93 442.08   Q 678.17 441.30 663.80 437.87   A 0.21 0.21 0.0 0 0 663.54 438.05   Q 660.20 470.65 640.86 496.96   A 0.23 0.22 10.9 0 0 641.10 497.31   L 678.97 487.18   A 1.00 0.99 -13.0 0 0 679.70 486.03   C 676.43 468.94 682.01 455.24 693.04 442.33   Z   M 703.57 467.62   C 699.61 476.73 702.35 487.38 704.62 495.97   C 706.01 503.29 708.30 512.37 713.67 517.40   Q 720.67 523.95 730.50 521.50   Q 732.69 520.95 732.18 518.76   L 728.39 502.35   L 735.77 500.73   Q 738.94 508.32 741.11 517.68   Q 741.50 519.34 743.10 518.74   Q 760.90 512.05 755.96 491.98   Q 753.20 480.74 751.31 475.58   Q 749.40 466.16 744.87 459.93   C 732.96 441.82 708.50 447.52 703.57 467.62   Z   M 778.61 492.76   C 778.09 542.95 713.78 561.70 688.88 517.24   L 685.33 507.91   A 1.19 1.18 72.3 0 0 683.93 507.18   Q 547.95 542.81 412.73 581.22   Q 412.18 581.37 412.30 581.93   L 414.46 591.77   Q 417.37 608.54 409.24 622.97   C 399.38 640.47 383.86 647.82 363.94 648.74   Q 363.01 648.79 363.25 649.69   Q 377.17 703.77 390.24 754.00   C 392.50 762.69 397.30 773.08 407.06 774.02   Q 410.34 774.34 419.80 771.91   Q 568.97 733.60 718.08 695.03   C 780.91 678.77 843.92 663.18 906.76 646.96   Q 915.91 644.60 919.49 636.01   Q 922.53 628.69 920.69 621.81   Q 901.76 551.30 883.06 480.74   Q 881.16 473.59 876.06 467.96   Q 867.32 457.95 854.82 461.11   Q 818.88 470.19 776.99 481.86   Q 776.51 481.99 776.61 482.49   L 778.61 492.76   Z   M 338.45 573.74   C 336.33 581.48 338.42 588.84 340.74 597.00   C 344.58 613.50 348.27 630.57 368.23 627.15   A 1.12 1.12 0.0 0 0 369.13 625.81   L 365.11 607.40   Q 368.05 605.50 372.56 605.20   Q 376.11 613.69 378.47 623.09   A 1.37 1.36 -18.2 0 0 380.32 624.02   C 389.70 620.16 396.27 609.73 394.04 599.49   Q 392.43 592.10 388.90 581.02   Q 386.70 570.49 381.08 562.85   C 367.50 545.51 341.92 552.27 338.45 573.74   Z   M 811.03 693.39   L 775.40 702.51   A 0.54 0.53 80.2 0 0 775.00 703.09   Q 776.07 713.31 773.50 723.20   Q 770.53 733.17 764.92 742.01   Q 764.63 742.46 765.12 742.69   Q 773.02 746.45 779.40 752.45   Q 779.86 752.88 780.11 752.30   C 780.92 750.39 783.89 744.46 786.25 744.51   C 816.13 745.15 834.49 718.59 827.63 690.30   Q 827.40 689.35 826.45 689.58   L 811.03 693.39   Z   M 703.43 720.89   L 489.23 775.98   L 419.93 793.72   Q 403.62 797.77 388.96 789.38   Q 388.43 789.07 388.44 789.68   Q 388.66 799.04 387.13 808.27   Q 386.80 810.25 388.72 811.79   C 400.63 821.39 413.86 821.67 428.34 820.84   A 0.46 0.45 -18.6 0 0 428.70 820.13   Q 421.53 809.26 432.47 801.49   C 447.22 806.61 461.71 807.71 474.78 797.80   C 476.98 796.13 477.13 792.21 478.29 790.07   C 481.79 783.59 490.71 783.01 495.18 789.06   Q 495.98 790.15 497.08 793.62   C 504.50 817.10 544.41 820.88 556.51 799.37   C 560.34 792.56 557.73 784.21 567.90 782.80   C 573.32 782.04 577.80 785.23 579.03 790.53   C 579.45 792.35 578.68 795.85 580.21 797.52   C 587.48 805.47 601.98 807.25 612.24 805.11   Q 633.68 800.64 638.59 779.46   Q 640.17 773.86 647.32 772.17   C 664.20 773.42 656.73 793.41 653.99 802.37   C 650.60 808.27 648.25 814.56 644.44 820.17   Q 643.82 821.08 644.93 821.10   C 663.91 821.38 680.37 822.17 695.96 809.77   Q 696.36 809.45 696.29 808.94   L 694.15 794.24   C 695.81 785.53 696.41 779.17 700.66 769.60   L 707.99 758.38   C 717.75 748.19 726.69 743.84 740.08 740.74   A 1.35 1.33 10.3 0 0 740.87 740.20   C 747.95 729.76 753.17 721.46 754.30 708.44   A 0.65 0.64 85.0 0 0 753.49 707.76   L 703.43 720.89   Z   M 326.22 819.82   Q 336.35 824.35 347.25 821.81   C 373.33 815.74 373.74 784.09 355.24 769.49   Q 349.55 764.24 340.49 763.53   C 305.46 760.79 297.22 806.09 326.22 819.82   Z   M 726.22 771.77   C 703.96 790.49 718.83 826.38 748.42 822.40   Q 767.86 819.78 774.00 800.52   C 780.69 771.26 748.94 750.83 726.22 771.77   Z"
     id="path129" />
  <path
     fill="#ffffff"
     d="   M 711.59 274.17   C 704.76 277.78 700.88 283.11 694.58 287.66   C 691.93 289.57 688.97 289.37 686.27 291.86   C 675.69 301.65 662.45 306.84 648.09 303.61   A 1.27 1.27 0.0 0 0 646.55 304.71   Q 645.94 309.97 641.60 314.14   Q 637.85 304.39 628.98 306.43   Q 630.07 299.29 625.89 293.27   C 623.34 289.59 619.22 289.83 617.35 294.16   C 607.30 317.46 581.31 328.25 556.81 326.37   Q 547.97 325.69 536.39 321.27   Q 536.27 312.76 528.49 308.80   C 526.75 307.91 523.20 308.28 521.27 309.15   Q 515.42 311.79 514.03 318.10   Q 499.63 326.14 485.23 326.49   Q 455.98 327.19 436.13 306.41   C 432.37 302.48 430.04 298.23 427.43 293.33   C 425.46 289.63 421.96 290.08 419.92 293.43   Q 416.49 299.09 415.77 305.99   Q 410.19 306.39 407.49 311.40   Q 406.35 311.17 405.85 309.41   A 0.76 0.76 0.0 0 0 405.06 308.86   Q 398.77 309.37 398.93 303.36   A 0.79 0.79 0.0 0 0 397.99 302.56   C 392.70 303.58 386.39 305.50 381.06 304.57   Q 368.70 302.42 358.51 295.08   Q 356.60 293.71 353.46 292.18   C 345.89 288.51 340.58 275.60 336.65 268.41   Q 336.02 267.27 333.52 266.61   C 342.99 256.23 354.72 254.41 368.00 256.85   Q 370.96 257.39 372.37 254.96   C 379.74 242.23 387.25 233.83 403.04 233.55   A 1.39 1.36 -25.5 0 1 403.94 233.86   C 409.92 238.80 416.73 242.29 423.05 235.67   C 425.32 233.31 426.19 228.88 427.24 225.62   C 437.03 195.22 469.42 178.15 500.22 188.19   Q 519.34 194.43 529.33 213.92   C 533.00 221.06 543.14 219.92 546.93 213.68   Q 555.31 199.92 569.50 194.60   C 607.41 180.38 641.13 208.62 650.25 244.04   C 653.70 257.44 660.46 256.23 671.99 254.27   C 687.97 251.54 704.56 258.63 711.59 274.17   Z"
     id="path130" />
  <path
     fill="#e3e9f1"
     d="   M 333.52 266.61   Q 336.02 267.27 336.65 268.41   C 340.58 275.60 345.89 288.51 353.46 292.18   Q 356.60 293.71 358.51 295.08   Q 368.70 302.42 381.06 304.57   C 386.39 305.50 392.70 303.58 397.99 302.56   A 0.79 0.79 0.0 0 1 398.93 303.36   Q 398.77 309.37 405.06 308.86   A 0.76 0.76 0.0 0 1 405.85 309.41   Q 406.35 311.17 407.49 311.40   C 404.04 319.81 394.20 322.15 386.06 322.28   Q 381.99 322.35 378.29 322.40   Q 365.83 316.42 355.37 308.45   A 0.43 0.42 -74.0 0 0 354.69 308.83   C 355.44 316.55 352.29 325.32 343.51 326.77   Q 341.24 327.14 332.58 329.61   C 323.69 332.14 329.37 348.87 324.28 349.88   Q 323.76 349.99 323.43 350.41   L 322.34 351.78   A 0.14 0.14 0.0 0 0 322.45 352.00   Q 322.61 352.00 322.77 352.00   A 0.21 0.21 0.0 0 1 322.91 352.36   Q 321.78 353.35 321.62 354.27   L 310.57 355.42   Q 310.06 355.47 309.80 355.03   C 307.58 351.23 302.72 344.85 302.98 340.40   Q 303.81 326.31 315.28 319.16   C 320.96 315.62 328.32 316.35 330.78 309.12   Q 333.33 301.63 328.79 295.19   C 327.45 293.29 326.00 291.79 325.90 289.34   Q 325.34 276.25 333.52 266.61   Z"
     id="path131" />
  <path
     fill="#e3e9f1"
     d="   M 711.59 274.17   Q 714.61 281.64 714.52 289.71   C 714.47 293.30 712.45 295.11 711.55 298.41   C 709.30 306.70 712.74 313.82 721.16 315.74   C 732.30 318.29 744.78 333.69 739.20 345.29   Q 736.66 350.57 733.73 355.57   Q 733.48 356.00 732.98 355.95   L 717.23 354.19   Q 712.35 343.23 713.71 331.73   Q 713.82 330.76 712.89 330.52   C 699.13 326.96 685.42 326.30 685.19 308.00   Q 685.17 307.06 684.44 307.63   L 671.19 317.84   Q 666.90 319.08 663.03 320.63   C 656.80 323.13 649.46 320.84 644.05 317.38   Q 642.15 316.16 641.60 314.14   Q 645.94 309.97 646.55 304.71   A 1.27 1.27 0.0 0 1 648.09 303.61   C 662.45 306.84 675.69 301.65 686.27 291.86   C 688.97 289.37 691.93 289.57 694.58 287.66   C 700.88 283.11 704.76 277.78 711.59 274.17   Z"
     id="path132" />
  <path
     fill="#e3e9f1"
     d="   M 514.03 318.10   L 513.76 326.58   Q 513.75 327.09 513.39 327.46   Q 507.16 333.94 499.19 336.67   C 472.03 345.99 439.39 337.50 424.31 311.87   C 422.14 308.18 419.86 306.22 415.77 305.99   Q 416.49 299.09 419.92 293.43   C 421.96 290.08 425.46 289.63 427.43 293.33   C 430.04 298.23 432.37 302.48 436.13 306.41   Q 455.98 327.19 485.23 326.49   Q 499.63 326.14 514.03 318.10   Z"
     id="path133" />
  <path
     fill="#e3e9f1"
     d="   M 628.98 306.43   C 623.90 310.13 622.13 315.13 618.17 319.21   C 600.25 337.68 572.48 345.74 548.06 336.48   Q 542.91 334.53 538.29 330.41   C 535.54 327.96 535.98 324.68 536.39 321.27   Q 547.97 325.69 556.81 326.37   C 581.31 328.25 607.30 317.46 617.35 294.16   C 619.22 289.83 623.34 289.59 625.89 293.27   Q 630.07 299.29 628.98 306.43   Z"
     id="path134" />
  <path
     fill="#d0d8ea"
     d="   M 717.23 354.19   L 703.25 353.71   Q 702.76 353.70 702.72 353.21   C 701.88 343.39 690.28 341.10 684.09 347.66   C 682.44 349.42 681.63 351.33 680.88 353.70   Q 680.71 354.24 680.15 354.26   Q 666.46 354.65 653.05 357.43   Q 652.57 357.53 652.33 357.09   L 641.11 337.16   Q 640.90 336.78 641.32 336.90   C 650.54 339.46 666.68 338.76 672.21 329.41   Q 675.49 323.87 671.19 317.84   L 684.44 307.63   Q 685.17 307.06 685.19 308.00   C 685.42 326.30 699.13 326.96 712.89 330.52   Q 713.82 330.76 713.71 331.73   Q 712.35 343.23 717.23 354.19   Z"
     id="path135" />
  <path
     fill="#d0d8ea"
     d="   M 378.29 322.40   Q 373.91 326.74 375.55 331.32   C 377.91 337.91 386.68 340.30 393.17 339.51   Q 393.82 339.43 393.51 340.01   L 384.61 356.58   Q 384.34 357.09 383.77 356.99   Q 370.29 354.68 356.65 353.98   Q 356.12 353.95 355.97 353.44   C 355.38 351.50 354.81 349.62 353.61 348.05   C 347.82 340.45 336.29 343.79 335.19 353.18   A 0.62 0.62 0.0 0 1 334.60 353.73   L 321.62 354.27   Q 321.78 353.35 322.91 352.36   A 0.21 0.21 0.0 0 0 322.77 352.00   Q 322.61 352.00 322.45 352.00   A 0.14 0.14 0.0 0 1 322.34 351.78   L 323.43 350.41   Q 323.76 349.99 324.28 349.88   C 329.37 348.87 323.69 332.14 332.58 329.61   Q 341.24 327.14 343.51 326.77   C 352.29 325.32 355.44 316.55 354.69 308.83   A 0.43 0.42 -74.0 0 1 355.37 308.45   Q 365.83 316.42 378.29 322.40   Z"
     id="path136" />
  <path
     fill="#d0d8ea"
     d="   M 629.83 370.43   L 603.51 384.59   C 593.81 376.02 578.87 378.78 575.57 391.73   Q 574.86 391.27 573.97 391.75   Q 573.52 391.99 573.05 391.80   C 554.82 384.47 533.72 379.34 514.00 380.45   Q 486.49 382.01 460.84 393.73   C 458.10 379.67 442.55 374.95 432.62 384.87   L 405.94 371.20   Q 411.76 357.70 420.59 345.64   Q 420.88 345.25 421.24 345.57   Q 441.88 363.50 469.59 365.15   C 488.22 366.26 507.82 362.17 522.64 350.27   A 0.67 0.66 44.6 0 1 523.47 350.27   C 550.65 371.81 589.74 368.73 617.31 350.41   A 0.65 0.65 0.0 0 1 618.19 350.56   Q 625.14 359.72 629.83 370.43   Z"
     id="path137" />
  <path
     fill="#ffffff"
     d="   M 629.83 370.43   Q 642.19 398.31 639.56 429.52   L 637.19 429.63   Q 636.62 429.66 636.45 430.20   Q 634.65 435.84 632.26 439.49   C 578.26 521.78 462.14 527.89 406.68 442.55   Q 402.65 436.35 400.37 431.03   Q 400.20 430.62 399.76 430.70   L 397.76 431.08   Q 394.74 399.88 405.94 371.20   L 432.62 384.87   C 420.96 399.88 437.16 420.25 453.69 408.90   Q 461.62 403.45 460.84 393.73   Q 486.49 382.01 514.00 380.45   C 533.72 379.34 554.82 384.47 573.05 391.80   Q 573.52 391.99 573.97 391.75   Q 574.86 391.27 575.57 391.73   C 571.38 408.36 590.00 418.61 602.53 407.08   Q 611.89 398.47 603.51 384.59   L 629.83 370.43   Z   M 518.71 483.59   Q 525.22 489.67 533.00 489.26   C 541.68 488.81 554.60 482.10 558.07 473.07   C 560.07 467.86 558.23 461.26 552.53 459.59   C 542.76 456.72 540.69 472.29 532.76 469.52   C 525.77 467.09 526.65 455.81 527.32 450.05   C 528.21 442.49 544.80 437.70 541.51 428.28   Q 538.23 418.90 529.11 420.00   C 526.05 420.37 522.43 422.40 519.12 423.46   A 1.30 1.28 47.0 0 1 518.19 423.42   C 514.37 421.80 509.90 419.72 505.98 419.90   C 496.90 420.34 490.98 430.68 498.39 437.61   Q 504.26 443.10 508.31 447.31   C 511.23 450.36 510.97 463.56 508.46 466.85   C 501.35 476.15 495.11 460.86 488.86 459.40   C 483.23 458.08 478.12 463.72 478.10 469.03   C 478.07 478.69 489.63 486.16 498.03 488.25   Q 509.47 491.09 517.89 483.58   Q 518.31 483.21 518.71 483.59   Z"
     id="path138" />
  <path
     fill="#ffffff"
     d="   M 377.15 380.08   Q 370.12 380.99 355.01 384.27   Q 338.95 387.75 320.28 388.16   C 311.03 388.37 298.99 387.30 290.50 386.98   Q 288.08 386.89 285.24 387.80   Q 284.72 387.96 284.59 387.43   L 284.49 386.98   C 313.03 376.90 347.56 375.07 376.85 378.39   Q 377.39 378.45 377.47 378.99   Q 377.55 379.62 377.15 380.08   Z"
     id="path139" />
  <path
     fill="#ffffff"
     d="   M 754.85 387.44   Q 753.29 388.34 751.00 387.75   Q 748.73 387.16 747.37 387.24   C 717.49 389.11 690.08 387.97 661.23 380.00   Q 660.79 379.88 660.33 379.92   L 659.54 380.00   Q 659.10 379.47 659.04 379.03   Q 658.95 378.48 659.50 378.42   Q 704.95 373.39 749.00 385.23   Q 750.56 385.66 754.85 387.44   Z"
     id="path140" />
  <path
     fill="#112250"
     d="   M 603.51 384.59   Q 611.89 398.47 602.53 407.08   C 590.00 418.61 571.38 408.36 575.57 391.73   C 578.87 378.78 593.81 376.02 603.51 384.59   Z"
     id="path141" />
  <path
     fill="#112250"
     d="   M 460.84 393.73   Q 461.62 403.45 453.69 408.90   C 437.16 420.25 420.96 399.88 432.62 384.87   C 442.55 374.95 458.10 379.67 460.84 393.73   Z"
     id="path142" />
  <path
     fill="#ff93b6"
     d="   M 754.85 387.44   L 760.31 391.15   Q 760.03 392.73 758.95 393.24   C 737.08 403.51 709.16 405.60 685.75 401.76   Q 670.19 399.20 663.00 398.41   L 659.54 380.00   L 660.33 379.92   Q 660.79 379.88 661.23 380.00   C 690.08 387.97 717.49 389.11 747.37 387.24   Q 748.73 387.16 751.00 387.75   Q 753.29 388.34 754.85 387.44   Z   M 720.19 391.56   Q 723.10 390.68 725.69 391.67   A 0.77 0.77 0.0 0 0 726.69 391.21   Q 727.02 390.33 726.51 389.86   Q 726.16 389.53 725.42 389.60   Q 722.69 389.87 720.04 390.46   A 0.57 0.57 0.0 0 0 719.60 391.08   Q 719.67 391.72 720.19 391.56   Z"
     id="path143" />
  <path
     fill="#ff93b6"
     d="   M 377.15 380.08   L 373.81 398.45   Q 370.98 398.43 369.49 398.69   C 349.22 402.30 329.51 404.62 309.19 402.10   Q 290.45 399.78 275.11 391.57   Q 279.75 388.26 284.49 386.98   L 284.59 387.43   Q 284.72 387.96 285.24 387.80   Q 288.08 386.89 290.50 386.98   C 298.99 387.30 311.03 388.37 320.28 388.16   Q 338.95 387.75 355.01 384.27   Q 370.12 380.99 377.15 380.08   Z   M 313.87 390.12   L 310.95 389.68   A 0.21 0.21 0.0 0 0 310.71 389.85   L 310.69 389.94   A 1.55 1.54 8.7 0 0 311.99 391.70   L 312.27 391.74   A 1.55 1.54 8.7 0 0 314.03 390.45   L 314.05 390.36   A 0.21 0.21 0.0 0 0 313.87 390.12   Z"
     id="path144" />
  <path
     fill="#ffffff"
     d="   M 720.19 391.56   Q 719.67 391.72 719.60 391.08   A 0.57 0.57 0.0 0 1 720.04 390.46   Q 722.69 389.87 725.42 389.60   Q 726.16 389.53 726.51 389.86   Q 727.02 390.33 726.69 391.21   A 0.77 0.77 0.0 0 1 725.69 391.67   Q 723.10 390.68 720.19 391.56   Z"
     id="path145" />
  <path
     fill="#ffffff"
     d="   M 313.87 390.12   A 0.21 0.21 0.0 0 1 314.05 390.36   L 314.03 390.45   A 1.55 1.54 8.7 0 1 312.27 391.74   L 311.99 391.70   A 1.55 1.54 8.7 0 1 310.69 389.94   L 310.71 389.85   A 0.21 0.21 0.0 0 1 310.95 389.68   L 313.87 390.12   Z"
     id="path146" />
  <path
     fill="#ff5a98"
     d="   M 275.11 391.57   Q 290.45 399.78 309.19 402.10   C 329.51 404.62 349.22 402.30 369.49 398.69   Q 370.98 398.43 373.81 398.45   L 372.67 412.91   A 0.89 0.89 0.0 0 1 372.03 413.69   C 350.23 420.06 327.99 420.73 305.25 419.02   C 295.79 418.31 265.81 414.38 269.26 399.01   Q 270.35 394.15 275.11 391.57   Z"
     id="path147" />
  <path
     fill="#ff5a98"
     d="   M 760.31 391.15   C 766.54 396.15 767.58 403.61 761.72 409.14   C 752.10 418.20 733.79 419.29 720.11 419.86   C 702.34 420.60 682.14 420.24 665.31 413.50   A 2.03 2.01 8.9 0 1 664.04 411.77   L 663.00 398.41   Q 670.19 399.20 685.75 401.76   C 709.16 405.60 737.08 403.51 758.95 393.24   Q 760.03 392.73 760.31 391.15   Z"
     id="path148" />
  <path
     fill="#ffffff"
     d="   M 252.43 423.51   C 251.74 424.75 251.27 425.75 251.70 427.23   C 264.78 472.35 337.46 470.80 364.03 442.18   A 1.05 1.04 61.9 0 0 364.29 441.31   L 363.94 439.22   L 372.63 437.81   Q 373.23 437.71 373.30 438.32   C 378.83 489.93 414.05 531.10 463.44 545.35   A 0.34 0.34 0.0 0 1 463.43 546.00   L 407.49 561.66   A 0.63 0.62 -18.7 0 1 406.75 561.30   C 387.37 515.92 326.64 523.08 315.80 569.76   C 312.20 585.27 318.47 600.80 322.51 615.50   Q 326.63 630.52 338.90 639.96   A 1.16 1.14 -73.6 0 1 339.34 640.78   Q 339.79 647.67 340.72 651.26   Q 353.22 699.78 365.77 748.28   Q 365.94 748.96 365.34 748.60   Q 350.48 739.66 333.09 741.04   Q 332.63 741.07 332.35 740.70   C 329.37 736.59 326.07 732.53 324.31 727.79   C 322.18 722.05 321.88 717.00 314.82 714.60   Q 316.39 712.40 315.65 709.44   Q 315.52 708.92 314.99 709.00   Q 307.63 710.07 305.54 710.18   C 277.39 711.60 253.92 686.36 267.77 658.76   A 0.33 0.33 0.0 0 0 267.36 658.31   C 236.05 669.81 211.50 640.24 211.73 611.16   Q 211.76 606.45 213.78 601.49   Q 214.11 600.68 213.27 599.34   C 218.78 593.74 226.29 588.42 228.86 580.57   Q 232.95 579.16 236.92 577.25   C 241.00 575.28 251.10 573.33 251.89 569.00   Q 252.69 564.58 250.43 561.08   Q 250.13 560.62 249.61 560.46   C 231.79 554.87 219.02 543.63 215.79 525.01   Q 212.55 506.34 224.27 486.56   Q 229.72 482.98 237.44 479.62   C 241.86 477.71 244.40 473.92 243.82 469.25   C 243.22 464.47 237.62 458.31 234.97 454.07   C 224.42 437.21 226.48 415.28 240.54 401.06   Q 240.95 400.65 241.01 401.23   Q 242.42 414.34 252.43 423.51   Z"
     id="path149" />
  <path
     fill="#ffffff"
     d="   M 763.68 446.62   Q 770.89 439.39 772.51 429.32   Q 778.79 424.81 783.65 418.89   Q 787.58 414.12 789.19 407.22   Q 789.34 406.57 789.71 407.13   C 799.30 421.58 798.50 439.90 788.81 453.82   C 784.93 459.39 777.97 460.21 771.79 461.40   Q 771.29 461.49 771.13 461.01   Q 768.35 452.81 763.68 446.62   Z"
     id="path150" />
  <path
     fill="#112250"
     d="   M 517.89 483.58   Q 509.47 491.09 498.03 488.25   C 489.63 486.16 478.07 478.69 478.10 469.03   C 478.12 463.72 483.23 458.08 488.86 459.40   C 495.11 460.86 501.35 476.15 508.46 466.85   C 510.97 463.56 511.23 450.36 508.31 447.31   Q 504.26 443.10 498.39 437.61   C 490.98 430.68 496.90 420.34 505.98 419.90   C 509.90 419.72 514.37 421.80 518.19 423.42   A 1.30 1.28 47.0 0 0 519.12 423.46   C 522.43 422.40 526.05 420.37 529.11 420.00   Q 538.23 418.90 541.51 428.28   C 544.80 437.70 528.21 442.49 527.32 450.05   C 526.65 455.81 525.77 467.09 532.76 469.52   C 540.69 472.29 542.76 456.72 552.53 459.59   C 558.23 461.26 560.07 467.86 558.07 473.07   C 554.60 482.10 541.68 488.81 533.00 489.26   Q 525.22 489.67 518.71 483.59   Q 518.31 483.21 517.89 483.58   Z"
     id="path151" />
  <path
     fill="#e3e9f1"
     d="   M 252.43 423.51   C 268.53 436.43 287.26 440.65 307.56 441.60   Q 335.89 442.94 363.94 439.22   L 364.29 441.31   A 1.05 1.04 61.9 0 1 364.03 442.18   C 337.46 470.80 264.78 472.35 251.70 427.23   C 251.27 425.75 251.74 424.75 252.43 423.51   Z"
     id="path152" />
  <path
     fill="#d0d8ea"
     d="   M 639.56 429.52   C 636.84 467.02 614.31 500.66 578.23 512.92   Q 556.78 520.21 534.69 525.19   C 504.66 531.96 472.51 524.71 446.63 509.22   C 418.08 492.13 400.91 464.54 397.76 431.08   L 399.76 430.70   Q 400.20 430.62 400.37 431.03   Q 402.65 436.35 406.68 442.55   C 462.14 527.89 578.26 521.78 632.26 439.49   Q 634.65 435.84 636.45 430.20   Q 636.62 429.66 637.19 429.63   L 639.56 429.52   Z"
     id="path153" />
  <path
     fill="#e3e9f1"
     d="   M 772.51 429.32   Q 770.89 439.39 763.68 446.62   L 755.39 438.07   A 0.48 0.47 59.0 0 1 755.58 437.29   Q 764.00 434.59 772.51 429.32   Z"
     id="path154" />
  <path
     fill="#ffffff"
     d="   M 693.04 442.33   C 682.01 455.24 676.43 468.94 679.70 486.03   A 1.00 0.99 -13.0 0 1 678.97 487.18   L 641.10 497.31   A 0.23 0.22 10.9 0 1 640.86 496.96   Q 660.20 470.65 663.54 438.05   A 0.21 0.21 0.0 0 1 663.80 437.87   Q 678.17 441.30 692.93 442.08   A 0.15 0.15 0.0 0 1 693.04 442.33   Z"
     id="path155" />
  <path
     fill="#ffffff"
     d="   M 744.87 459.93   Q 744.48 461.15 742.78 459.56   C 739.54 456.52 727.56 455.63 724.48 455.96   Q 715.27 456.94 708.54 465.56   Q 707.38 467.04 703.57 467.62   C 708.50 447.52 732.96 441.82 744.87 459.93   Z"
     id="path156" />
  <path
     fill="#ff93b6"
     d="   M 744.87 459.93   Q 749.40 466.16 751.31 475.58   Q 747.03 470.29 743.01 466.75   Q 742.49 466.28 741.92 466.56   A 0.37 0.37 0.0 0 0 741.85 467.18   C 753.43 477.07 744.92 493.24 735.77 500.73   L 728.39 502.35   Q 710.35 499.61 704.73 481.87   Q 704.49 481.11 704.36 481.89   C 703.73 485.71 705.01 490.61 706.03 494.01   Q 706.48 495.50 704.62 495.97   C 702.35 487.38 699.61 476.73 703.57 467.62   Q 707.38 467.04 708.54 465.56   Q 715.27 456.94 724.48 455.96   C 727.56 455.63 739.54 456.52 742.78 459.56   Q 744.48 461.15 744.87 459.93   Z   M 734.2647 466.4070   A 8.68 6.92 -8.5 0 0 724.6572 460.8460   A 8.68 6.92 -8.5 0 0 717.0953 468.9730   A 8.68 6.92 -8.5 0 0 726.7028 474.5340   A 8.68 6.92 -8.5 0 0 734.2647 466.4070   Z   M 714.29 474.77   Q 715.67 475.56 716.47 475.20   Q 717.13 474.91 717.23 473.72   Q 717.41 471.69 716.39 469.71   A 0.58 0.57 42.6 0 0 715.35 469.75   L 713.83 473.42   Q 713.46 474.30 714.29 474.77   Z"
     id="path157" />
  <path
     fill="#60e0ff"
     d="   M 876.06 467.96   C 869.16 469.65 861.94 470.00 855.46 471.78   C 829.95 478.78 803.80 484.77 778.61 492.76   L 776.61 482.49   Q 776.51 481.99 776.99 481.86   Q 818.88 470.19 854.82 461.11   Q 867.32 457.95 876.06 467.96   Z"
     id="path158" />
  <ellipse
     fill="#ffffff"
     cx="0.00"
     cy="0.00"
     transform="translate(725.68,467.69) rotate(-8.5)"
     rx="8.68"
     ry="6.92"
     id="ellipse158" />
  <path
     fill="#ff5a98"
     d="   M 751.31 475.58   Q 753.20 480.74 755.96 491.98   Q 760.90 512.05 743.10 518.74   Q 741.50 519.34 741.11 517.68   Q 738.94 508.32 735.77 500.73   C 744.92 493.24 753.43 477.07 741.85 467.18   A 0.37 0.37 0.0 0 1 741.92 466.56   Q 742.49 466.28 743.01 466.75   Q 747.03 470.29 751.31 475.58   Z"
     id="path159" />
  <path
     fill="#019eff"
     d="   M 876.06 467.96   Q 881.16 473.59 883.06 480.74   Q 901.76 551.30 920.69 621.81   Q 922.53 628.69 919.49 636.01   Q 915.91 644.60 906.76 646.96   C 843.92 663.18 780.91 678.77 718.08 695.03   Q 568.97 733.60 419.80 771.91   Q 410.34 774.34 407.06 774.02   C 397.30 773.08 392.50 762.69 390.24 754.00   Q 377.17 703.77 363.25 649.69   Q 363.01 648.79 363.94 648.74   C 383.86 647.82 399.38 640.47 409.24 622.97   Q 417.37 608.54 414.46 591.77   Q 551.34 553.29 688.88 517.24   C 713.78 561.70 778.09 542.95 778.61 492.76   C 803.80 484.77 829.95 478.78 855.46 471.78   C 861.94 470.00 869.16 469.65 876.06 467.96   Z   M 831.34 589.92   L 829.24 581.23   A 0.68 0.66 -14.8 0 1 829.72 580.43   Q 840.32 577.39 850.96 574.53   C 865.24 570.69 859.66 553.14 845.60 556.94   Q 835.07 559.78 824.55 562.79   A 0.61 0.60 -15.8 0 1 823.79 562.37   L 821.41 553.85   A 0.77 0.77 0.0 0 1 821.98 552.89   Q 834.15 550.17 846.30 546.97   C 858.93 543.63 852.88 525.33 838.41 529.37   Q 824.39 533.28 810.25 537.04   C 802.33 539.15 797.21 542.56 799.72 551.52   Q 807.08 577.75 814.16 604.08   C 816.05 611.07 822.56 612.67 828.99 610.79   Q 844.99 606.12 861.09 601.86   C 875.89 597.94 869.16 580.09 857.99 583.44   Q 845.18 587.29 832.17 590.43   Q 831.50 590.59 831.34 589.92   Z   M 754.54 618.81   C 757.31 629.20 762.86 628.86 771.85 626.28   Q 785.64 622.33 799.44 618.43   Q 804.88 616.89 806.86 614.85   C 811.50 610.07 808.59 599.88 801.65 599.19   Q 799.10 598.93 793.03 600.78   Q 783.17 603.78 773.36 606.70   A 0.80 0.80 0.0 0 1 772.36 606.15   Q 766.75 585.55 761.28 564.76   C 759.97 559.79 758.42 555.84 753.72 554.32   C 746.57 552.00 738.04 558.16 740.21 566.01   Q 747.49 592.38 754.54 618.81   Z   M 697.65 631.93   L 724.00 624.96   A 0.91 0.90 61.5 0 1 724.90 625.23   C 728.86 629.74 733.27 636.59 740.18 635.77   C 746.17 635.06 753.33 627.26 748.20 621.55   Q 726.01 596.83 704.47 571.54   C 699.31 565.48 687.46 566.26 685.96 575.25   Q 680.70 606.74 675.68 638.28   C 674.40 646.31 680.53 651.33 688.07 649.18   C 696.26 646.84 695.75 638.67 696.95 632.67   A 0.96 0.96 0.0 0 1 697.65 631.93   Z   M 600.88 608.27   C 599.89 618.96 607.19 629.10 618.26 630.74   Q 629.61 632.41 642.06 631.95   C 645.60 631.82 649.07 634.45 647.41 638.17   C 645.50 642.43 636.97 643.66 632.99 643.42   C 624.92 642.93 619.43 637.79 613.37 647.11   C 610.84 651.00 610.43 654.25 614.61 657.17   C 632.99 670.03 672.35 658.28 666.60 630.45   C 662.19 609.08 640.47 613.48 624.70 612.60   C 619.24 612.29 620.05 607.00 623.74 605.30   Q 628.00 603.34 632.66 603.43   C 637.19 603.51 641.71 606.59 646.07 604.72   Q 650.41 602.87 652.54 598.24   C 656.05 590.61 644.15 585.88 638.26 585.20   C 623.06 583.43 602.56 590.21 600.88 608.27   Z   M 526.05 653.75   Q 542.39 664.95 558.05 677.06   C 567.30 684.21 579.45 679.56 575.73 666.76   Q 568.59 642.20 561.97 617.49   C 559.78 609.31 553.03 603.38 544.65 608.87   C 539.58 612.19 540.07 617.21 541.78 622.78   Q 545.37 634.53 548.19 646.41   A 0.22 0.21 11.8 0 1 547.85 646.63   Q 530.96 634.27 514.36 622.03   C 508.60 617.79 501.58 617.13 497.39 623.93   Q 495.19 627.52 496.43 631.77   Q 503.72 656.63 510.50 681.62   Q 511.84 686.53 513.79 688.68   C 518.75 694.14 529.81 693.89 532.14 685.77   Q 532.88 683.21 531.51 678.34   C 529.24 670.31 526.75 662.68 525.58 654.04   Q 525.49 653.37 526.05 653.75   Z   M 434.53 641.79   C 401.09 672.26 439.63 726.41 480.37 702.21   C 507.66 685.99 498.80 644.99 471.46 634.89   C 459.46 630.45 443.82 633.32 434.53 641.79   Z"
     id="path160" />
  <path
     fill="#ffffff"
     d="   M 714.29 474.77   Q 713.46 474.30 713.83 473.42   L 715.35 469.75   A 0.58 0.57 42.6 0 1 716.39 469.71   Q 717.41 471.69 717.23 473.72   Q 717.13 474.91 716.47 475.20   Q 715.67 475.56 714.29 474.77   Z"
     id="path161" />
  <path
     fill="#ff5a98"
     d="   M 728.39 502.35   L 732.18 518.76   Q 732.69 520.95 730.50 521.50   Q 720.67 523.95 713.67 517.40   C 708.30 512.37 706.01 503.29 704.62 495.97   Q 706.48 495.50 706.03 494.01   C 705.01 490.61 703.73 485.71 704.36 481.89   Q 704.49 481.11 704.73 481.87   Q 710.35 499.61 728.39 502.35   Z"
     id="path162" />
  <path
     fill="#e3e9f1"
     d="   M 224.27 486.56   Q 212.55 506.34 215.79 525.01   C 219.02 543.63 231.79 554.87 249.61 560.46   Q 250.13 560.62 250.43 561.08   Q 252.69 564.58 251.89 569.00   C 251.10 573.33 241.00 575.28 236.92 577.25   Q 232.95 579.16 228.86 580.57   C 228.88 574.90 226.91 571.78 221.62 569.75   C 202.26 562.30 192.58 541.88 196.71 521.78   Q 201.54 498.31 224.27 486.56   Z"
     id="path163" />
  <path
     fill="#60e0ff"
     d="   M 688.88 517.24   Q 551.34 553.29 414.46 591.77   L 412.30 581.93   Q 412.18 581.37 412.73 581.22   Q 547.95 542.81 683.93 507.18   A 1.19 1.18 72.3 0 1 685.33 507.91   L 688.88 517.24   Z"
     id="path164" />
  <path
     fill="#ffffff"
     d="   M 832.17 590.43   Q 845.18 587.29 857.99 583.44   C 869.16 580.09 875.89 597.94 861.09 601.86   Q 844.99 606.12 828.99 610.79   C 822.56 612.67 816.05 611.07 814.16 604.08   Q 807.08 577.75 799.72 551.52   C 797.21 542.56 802.33 539.15 810.25 537.04   Q 824.39 533.28 838.41 529.37   C 852.88 525.33 858.93 543.63 846.30 546.97   Q 834.15 550.17 821.98 552.89   A 0.77 0.77 0.0 0 0 821.41 553.85   L 823.79 562.37   A 0.61 0.60 -15.8 0 0 824.55 562.79   Q 835.07 559.78 845.60 556.94   C 859.66 553.14 865.24 570.69 850.96 574.53   Q 840.32 577.39 829.72 580.43   A 0.68 0.66 -14.8 0 0 829.24 581.23   L 831.34 589.92   Q 831.50 590.59 832.17 590.43   Z"
     id="path165" />
  <path
     fill="#ffffff"
     d="   M 381.08 562.85   Q 376.01 561.53 371.22 560.49   C 358.62 557.75 347.98 561.69 341.91 573.59   Q 341.68 574.03 341.19 573.98   L 338.45 573.74   C 341.92 552.27 367.50 545.51 381.08 562.85   Z"
     id="path166" />
  <path
     fill="#ffffff"
     d="   M 771.85 626.28   C 762.86 628.86 757.31 629.20 754.54 618.81   Q 747.49 592.38 740.21 566.01   C 738.04 558.16 746.57 552.00 753.72 554.32   C 758.42 555.84 759.97 559.79 761.28 564.76   Q 766.75 585.55 772.36 606.15   A 0.80 0.80 0.0 0 0 773.36 606.70   Q 783.17 603.78 793.03 600.78   Q 799.10 598.93 801.65 599.19   C 808.59 599.88 811.50 610.07 806.86 614.85   Q 804.88 616.89 799.44 618.43   Q 785.64 622.33 771.85 626.28   Z"
     id="path167" />
  <path
     fill="#ff93b6"
     d="   M 381.08 562.85   Q 386.70 570.49 388.90 581.02   Q 387.07 580.41 385.13 581.57   Q 384.69 581.83 384.72 582.34   C 385.34 590.74 382.28 596.56 376.00 601.67   Q 373.85 603.42 372.56 605.20   Q 368.05 605.50 365.11 607.40   Q 362.00 606.08 358.59 604.72   C 349.32 601.04 343.64 595.36 341.46 585.17   A 0.51 0.51 0.0 0 0 340.46 585.35   L 342.20 596.98   A 0.62 0.57 28.8 0 1 341.06 597.25   Q 340.98 597.11 340.74 597.00   C 338.42 588.84 336.33 581.48 338.45 573.74   L 341.19 573.98   Q 341.68 574.03 341.91 573.59   C 347.98 561.69 358.62 557.75 371.22 560.49   Q 376.01 561.53 381.08 562.85   Z   M 352.72 575.99   C 363.44 586.28 375.99 569.93 365.98 565.89   C 359.10 563.11 352.69 565.87 351.74 573.05   C 351.49 575.01 349.97 578.24 352.06 580.36   Q 352.44 580.74 352.96 580.64   L 353.73 580.50   A 0.40 0.39 -22.2 0 0 353.99 579.89   L 351.87 576.71   A 0.56 0.56 0.0 0 1 352.72 575.99   Z"
     id="path168" />
  <path
     fill="#ffffff"
     d="   M 352.72 575.99   A 0.56 0.56 0.0 0 0 351.87 576.71   L 353.99 579.89   A 0.40 0.39 -22.2 0 1 353.73 580.50   L 352.96 580.64   Q 352.44 580.74 352.06 580.36   C 349.97 578.24 351.49 575.01 351.74 573.05   C 352.69 565.87 359.10 563.11 365.98 565.89   C 375.99 569.93 363.44 586.28 352.72 575.99   Z"
     id="path169" />
  <path
     fill="#ffffff"
     d="   M 696.95 632.67   C 695.75 638.67 696.26 646.84 688.07 649.18   C 680.53 651.33 674.40 646.31 675.68 638.28   Q 680.70 606.74 685.96 575.25   C 687.46 566.26 699.31 565.48 704.47 571.54   Q 726.01 596.83 748.20 621.55   C 753.33 627.26 746.17 635.06 740.18 635.77   C 733.27 636.59 728.86 629.74 724.90 625.23   A 0.91 0.90 61.5 0 0 724.00 624.96   L 697.65 631.93   A 0.96 0.96 0.0 0 0 696.95 632.67   Z   M 699.41 612.43   A 0.48 0.48 0.0 0 0 700.01 612.95   L 711.43 609.80   A 0.48 0.48 0.0 0 0 711.69 609.05   L 701.92 595.89   A 0.48 0.48 0.0 0 0 701.06 596.13   L 699.41 612.43   Z"
     id="path170" />
  <path
     fill="#ff5a98"
     d="   M 388.90 581.02   Q 392.43 592.10 394.04 599.49   C 396.27 609.73 389.70 620.16 380.32 624.02   A 1.37 1.36 -18.2 0 1 378.47 623.09   Q 376.11 613.69 372.56 605.20   Q 373.85 603.42 376.00 601.67   C 382.28 596.56 385.34 590.74 384.72 582.34   Q 384.69 581.83 385.13 581.57   Q 387.07 580.41 388.90 581.02   Z"
     id="path171" />
  <path
     fill="#ff5a98"
     d="   M 365.11 607.40   L 369.13 625.81   A 1.12 1.12 0.0 0 1 368.23 627.15   C 348.27 630.57 344.58 613.50 340.74 597.00   Q 340.98 597.11 341.06 597.25   A 0.62 0.57 28.8 0 0 342.20 596.98   L 340.46 585.35   A 0.51 0.51 0.0 0 1 341.46 585.17   C 343.64 595.36 349.32 601.04 358.59 604.72   Q 362.00 606.08 365.11 607.40   Z"
     id="path172" />
  <path
     fill="#ffffff"
     d="   M 618.26 630.74   C 607.19 629.10 599.89 618.96 600.88 608.27   C 602.56 590.21 623.06 583.43 638.26 585.20   C 644.15 585.88 656.05 590.61 652.54 598.24   Q 650.41 602.87 646.07 604.72   C 641.71 606.59 637.19 603.51 632.66 603.43   Q 628.00 603.34 623.74 605.30   C 620.05 607.00 619.24 612.29 624.70 612.60   C 640.47 613.48 662.19 609.08 666.60 630.45   C 672.35 658.28 632.99 670.03 614.61 657.17   C 610.43 654.25 610.84 651.00 613.37 647.11   C 619.43 637.79 624.92 642.93 632.99 643.42   C 636.97 643.66 645.50 642.43 647.41 638.17   C 649.07 634.45 645.60 631.82 642.06 631.95   Q 629.61 632.41 618.26 630.74   Z"
     id="path173" />
  <path
     fill="#019eff"
     d="   M 699.41 612.43   L 701.06 596.13   A 0.48 0.48 0.0 0 1 701.92 595.89   L 711.69 609.05   A 0.48 0.48 0.0 0 1 711.43 609.80   L 700.01 612.95   A 0.48 0.48 0.0 0 1 699.41 612.43   Z"
     id="path174" />
  <path
     fill="#e3e9f1"
     d="   M 213.27 599.34   Q 214.11 600.68 213.78 601.49   Q 211.76 606.45 211.73 611.16   C 211.50 640.24 236.05 669.81 267.36 658.31   A 0.33 0.33 0.0 0 1 267.77 658.76   C 253.92 686.36 277.39 711.60 305.54 710.18   Q 307.63 710.07 314.99 709.00   Q 315.52 708.92 315.65 709.44   Q 316.39 712.40 314.82 714.60   Q 301.47 715.45 303.42 730.65   Q 300.18 730.79 296.97 731.01   C 278.57 732.30 259.74 720.37 253.05 703.28   C 250.70 697.28 250.93 689.84 250.70 683.47   A 0.95 0.95 0.0 0 0 249.67 682.55   L 240.78 683.21   C 238.88 674.67 229.20 675.97 223.04 672.00   C 197.07 655.26 194.99 622.70 213.27 599.34   Z"
     id="path175" />
  <path
     fill="#ffffff"
     d="   M 525.58 654.04   C 526.75 662.68 529.24 670.31 531.51 678.34   Q 532.88 683.21 532.14 685.77   C 529.81 693.89 518.75 694.14 513.79 688.68   Q 511.84 686.53 510.50 681.62   Q 503.72 656.63 496.43 631.77   Q 495.19 627.52 497.39 623.93   C 501.58 617.13 508.60 617.79 514.36 622.03   Q 530.96 634.27 547.85 646.63   A 0.22 0.21 11.8 0 0 548.19 646.41   Q 545.37 634.53 541.78 622.78   C 540.07 617.21 539.58 612.19 544.65 608.87   C 553.03 603.38 559.78 609.31 561.97 617.49   Q 568.59 642.20 575.73 666.76   C 579.45 679.56 567.30 684.21 558.05 677.06   Q 542.39 664.95 526.05 653.75   Q 525.49 653.37 525.58 654.04   Z"
     id="path176" />
  <path
     fill="#ffffff"
     d="   M 480.37 702.21   C 439.63 726.41 401.09 672.26 434.53 641.79   C 443.82 633.32 459.46 630.45 471.46 634.89   C 498.80 644.99 507.66 685.99 480.37 702.21   Z   M 466.4300 687.5325   A 18.34 17.30 67.9 0 0 475.5589 664.0313   A 18.34 17.30 67.9 0 0 452.6300 653.5475   A 18.34 17.30 67.9 0 0 443.5011 677.0487   A 18.34 17.30 67.9 0 0 466.4300 687.5325   Z"
     id="path177" />
  <ellipse
     fill="#019eff"
     cx="0.00"
     cy="0.00"
     transform="translate(459.53,670.54) rotate(67.9)"
     rx="18.34"
     ry="17.30"
     id="ellipse177" />
  <path
     fill="#d0d8ea"
     d="   M 303.42 730.65   Q 304.76 739.42 309.76 748.65   Q 310.04 749.18 309.55 749.52   Q 301.64 755.09 295.67 762.73   A 0.37 0.36 52.9 0 1 295.05 762.64   Q 292.86 757.19 288.37 753.41   A 1.69 1.63 66.2 0 0 287.44 753.03   C 283.46 752.69 279.24 752.92 275.66 752.42   C 251.70 749.10 233.70 728.49 236.40 704.07   C 237.17 697.01 240.82 690.32 240.78 683.21   L 249.67 682.55   A 0.95 0.95 0.0 0 1 250.70 683.47   C 250.93 689.84 250.70 697.28 253.05 703.28   C 259.74 720.37 278.57 732.30 296.97 731.01   Q 300.18 730.79 303.42 730.65   Z"
     id="path178" />
  <path
     fill="#d0d8ea"
     d="   M 773.50 723.20   C 775.88 723.29 778.63 722.75 780.44 722.56   Q 798.03 720.78 806.71 706.00   C 808.93 702.21 809.90 697.79 811.03 693.39   L 826.45 689.58   Q 827.40 689.35 827.63 690.30   C 834.49 718.59 816.13 745.15 786.25 744.51   C 783.89 744.46 780.92 750.39 780.11 752.30   Q 779.86 752.88 779.40 752.45   Q 773.02 746.45 765.12 742.69   Q 764.63 742.46 764.92 742.01   Q 770.53 733.17 773.50 723.20   Z"
     id="path179" />
  <path
     fill="#e3e9f1"
     d="   M 811.03 693.39   C 809.90 697.79 808.93 702.21 806.71 706.00   Q 798.03 720.78 780.44 722.56   C 778.63 722.75 775.88 723.29 773.50 723.20   Q 776.07 713.31 775.00 703.09   A 0.54 0.53 80.2 0 1 775.40 702.51   L 811.03 693.39   Z"
     id="path180" />
  <path
     fill="#e3e9f1"
     d="   M 707.99 758.38   Q 711.30 743.78 707.42 731.02   C 706.62 728.40 704.99 726.01 703.47 723.69   A 1.13 1.10 -60.2 0 1 703.30 723.03   L 703.43 720.89   L 753.49 707.76   A 0.65 0.64 85.0 0 1 754.30 708.44   C 753.17 721.46 747.95 729.76 740.87 740.20   A 1.35 1.33 10.3 0 1 740.08 740.74   C 726.69 743.84 717.75 748.19 707.99 758.38   Z"
     id="path181" />
  <path
     fill="#ffffff"
     d="   M 703.43 720.89   L 703.30 723.03   A 1.13 1.10 -60.2 0 0 703.47 723.69   C 704.99 726.01 706.62 728.40 707.42 731.02   Q 711.30 743.78 707.99 758.38   L 700.66 769.60   Q 698.63 768.40 697.46 768.97   Q 677.40 778.71 658.70 767.71   C 654.19 765.06 649.34 767.88 647.32 772.17   Q 640.17 773.86 638.59 779.46   Q 632.98 781.15 628.14 784.37   C 615.78 792.58 598.70 791.26 586.37 784.69   C 579.88 781.22 573.40 775.06 567.44 769.80   Q 566.79 769.23 566.16 769.82   Q 562.78 773.02 558.91 776.38   C 537.20 795.24 512.45 791.83 489.52 776.96   Q 489.18 776.74 489.23 775.98   L 703.43 720.89   Z"
     id="path182" />
  <path
     fill="#ff93b6"
     d="   M 355.24 769.49   Q 365.26 785.46 356.90 797.41   C 348.10 809.99 321.55 812.99 312.35 799.30   A 0.41 0.41 0.0 0 0 311.63 799.67   C 313.55 804.82 315.49 807.92 319.85 811.96   Q 323.58 815.42 326.22 819.82   C 297.22 806.09 305.46 760.79 340.49 763.53   Q 349.55 764.24 355.24 769.49   Z   M 330.35 787.48   A 6.89 6.89 0.0 0 0 323.46 780.59   A 6.89 6.89 0.0 0 0 316.57 787.48   A 6.89 6.89 0.0 0 0 323.46 794.37   A 6.89 6.89 0.0 0 0 330.35 787.48   Z"
     id="path183" />
  <path
     fill="#ff93b6"
     d="   M 774.00 800.52   C 773.10 799.78 771.66 800.20 770.85 801.08   C 755.87 817.17 715.50 804.77 723.82 779.27   Q 725.04 775.53 726.22 771.77   C 748.94 750.83 780.69 771.26 774.00 800.52   Z   M 767.6763 786.7801   A 7.37 6.85 -3.5 0 0 759.9018 780.3928   A 7.37 6.85 -3.5 0 0 752.9637 787.6799   A 7.37 6.85 -3.5 0 0 760.7382 794.0672   A 7.37 6.85 -3.5 0 0 767.6763 786.7801   Z"
     id="path184" />
  <path
     fill="#e3e9f1"
     d="   M 700.66 769.60   C 696.41 779.17 695.81 785.53 694.15 794.24   C 681.64 803.73 669.54 807.35 653.99 802.37   C 656.73 793.41 664.20 773.42 647.32 772.17   C 649.34 767.88 654.19 765.06 658.70 767.71   Q 677.40 778.71 697.46 768.97   Q 698.63 768.40 700.66 769.60   Z"
     id="path185" />
  <path
     fill="#e3e9f1"
     d="   M 638.59 779.46   Q 633.68 800.64 612.24 805.11   C 601.98 807.25 587.48 805.47 580.21 797.52   C 578.68 795.85 579.45 792.35 579.03 790.53   C 577.80 785.23 573.32 782.04 567.90 782.80   C 557.73 784.21 560.34 792.56 556.51 799.37   C 544.41 820.88 504.50 817.10 497.08 793.62   Q 495.98 790.15 495.18 789.06   C 490.71 783.01 481.79 783.59 478.29 790.07   C 477.13 792.21 476.98 796.13 474.78 797.80   C 461.71 807.71 447.22 806.61 432.47 801.49   Q 425.51 798.43 419.93 793.72   L 489.23 775.98   Q 489.18 776.74 489.52 776.96   C 512.45 791.83 537.20 795.24 558.91 776.38   Q 562.78 773.02 566.16 769.82   Q 566.79 769.23 567.44 769.80   C 573.40 775.06 579.88 781.22 586.37 784.69   C 598.70 791.26 615.78 792.58 628.14 784.37   Q 632.98 781.15 638.59 779.46   Z"
     id="path186" />
  <path
     fill="#ff5a98"
     d="   M 355.24 769.49   C 373.74 784.09 373.33 815.74 347.25 821.81   Q 336.35 824.35 326.22 819.82   Q 323.58 815.42 319.85 811.96   C 315.49 807.92 313.55 804.82 311.63 799.67   A 0.41 0.41 0.0 0 1 312.35 799.30   C 321.55 812.99 348.10 809.99 356.90 797.41   Q 365.26 785.46 355.24 769.49   Z"
     id="path187" />
  <path
     fill="#ff5a98"
     d="   M 726.22 771.77   Q 725.04 775.53 723.82 779.27   C 715.50 804.77 755.87 817.17 770.85 801.08   C 771.66 800.20 773.10 799.78 774.00 800.52   Q 767.86 819.78 748.42 822.40   C 718.83 826.38 703.96 790.49 726.22 771.77   Z"
     id="path188" />
  <ellipse
     fill="#ffffff"
     cx="0.00"
     cy="0.00"
     transform="translate(760.32,787.23) rotate(-3.5)"
     rx="7.37"
     ry="6.85"
     id="ellipse188" />
  <circle
     fill="#ffffff"
     cx="323.46"
     cy="787.48"
     r="6.89"
     id="circle188" />
  <path
     fill="#4f5d8d"
     d="   M 419.93 793.72   Q 425.51 798.43 432.47 801.49   Q 421.53 809.26 428.70 820.13   A 0.46 0.45 -18.6 0 1 428.34 820.84   C 413.86 821.67 400.63 821.39 388.72 811.79   Q 386.80 810.25 387.13 808.27   Q 388.66 799.04 388.44 789.68   Q 388.43 789.07 388.96 789.38   Q 403.62 797.77 419.93 793.72   Z"
     id="path189" />
  <path
     fill="#4f5d8d"
     d="   M 694.15 794.24   L 696.29 808.94   Q 696.36 809.45 695.96 809.77   C 680.37 822.17 663.91 821.38 644.93 821.10   Q 643.82 821.08 644.44 820.17   C 648.25 814.56 650.60 808.27 653.99 802.37   C 669.54 807.35 681.64 803.73 694.15 794.24   Z"
     id="path190" />
  <path
     fill="#d0d8ea"
     d="   M 802.92 845.49   Q 803.92 847.41 805.33 849.29   C 810.70 856.49 810.61 874.62 801.24 879.04   C 797.93 880.60 791.79 880.70 787.87 880.70   C 717.55 880.73 647.21 880.40 576.93 880.58   Q 382.11 881.08 272.25 880.58   C 261.76 880.53 257.60 869.74 258.75 860.99   Q 259.61 854.36 263.17 845.50   L 802.92 845.49   Z"
     id="path191" />
  <circle
     fill="#d0d8ea"
     cx="838.38"
     cy="869.13"
     r="10.04"
     id="circle191" />
  <ellipse
     fill="#d0d8ea"
     cx="0.00"
     cy="0.00"
     transform="translate(226.27,869.16) rotate(-13.0)"
     rx="10.28"
     ry="10.01"
     id="ellipse191" />
</svg>
